<svg id="a" xmlns="http://www.w3.org/2000/svg" viewBox="0 0 20 20"><path d="M15.97,8.87H4.05c-1.25,0-2.27,1.02-2.27,2.27v3.77s-.01,.09-.01,.14v1.45c0,.41,.33,.75,.75,.75h.72c.41,0,.75-.33,.75-.75v-1.36h12.03v1.36c0,.41,.33,.75,.75,.75h.72c.41,0,.75-.33,.75-.75v-1.36h.01v-4.01c0-1.25-1.01-2.27-2.27-2.27" style="fill:#fff;"/><path d="M4.35,7c0-.64,.52-1.16,1.16-1.16h2.93c.6,0,1.08,.48,1.08,1.08v.99h1.02v-.92c0-.64,.52-1.16,1.16-1.16h2.93c.6,0,1.08,.48,1.08,1.08v.99h1.53V3.92c0-.65-.52-1.17-1.17-1.17H3.92c-.65,0-1.17,.52-1.17,1.17V7.92h1.6v-.92Z" fill="#fff" /></svg>
