<svg id="a" xmlns="http://www.w3.org/2000/svg" viewBox="0 0 20 20"><path d="M18.6,6.15L10.4,2.71c-.27-.11-.57-.11-.84,0L1.4,6.12c-.41,.17-.67,.56-.67,1l.03,9.86c0,.2,.16,.36,.36,.36H3.19c.2,0,.36-.16,.36-.36v-7.8c0-.6,.49-1.08,1.08-1.08H15.43c.6,0,1.08,.48,1.08,1.08v7.8c0,.2,.16,.36,.36,.36h2.02c.2,0,.36-.16,.36-.36V7.15c0-.44-.26-.83-.66-1" style="fill:#fff;"/><rect x="4.46" y="9.06" width="11.08" height="2.8" style="fill:#fff;"/><path d="M4.46,17.37H15.54v-4.58H4.46v4.58Zm4.14-2.74h2.83c.25,0,.45,.2,.45,.45s-.2,.46-.45,.46h-2.83c-.25,0-.45-.2-.45-.46s.2-.45,.45-.45" style="fill:#fff;"/></svg>