<svg width="180" height="199" viewBox="0 0 180 199" fill="none" xmlns="http://www.w3.org/2000/svg">
<path d="M175.038 59.281L146.969 38.9621L146.967 12.7779C146.967 10.0543 144.663 7.75017 141.939 7.75017H130.418C127.694 7.75017 125.39 10.0545 125.39 12.7779V23.2516L95.4378 1.88492C92.0858 -0.628308 87.4774 -0.628308 84.1269 1.88492L4.52711 59.2806C-0.500622 62.8415 -1.54687 70.1736 2.43178 74.9911C5.99264 79.3908 12.4861 80.2279 17.0945 76.876L89.5723 24.5077L162.05 76.876C166.658 80.2279 173.152 79.3892 176.713 74.9911C180.902 70.1736 180.063 62.8416 175.037 59.2806L175.038 59.281Z" fill="black"/>
<path d="M30.0251 81.8422C27.4293 83.7231 25.8926 86.7343 25.8926 89.9399V117.933H153.881V89.9497C153.881 86.7386 152.339 83.7229 149.736 81.8429L95.6464 42.7784C92.1466 40.2508 87.4199 40.2545 83.924 42.7876L30.0251 81.8422ZM103.817 75.8285V94.6803C103.817 96.3563 102.35 97.8218 100.675 97.8218L78.8892 97.8233C77.2132 97.8233 75.7477 96.3562 75.7477 94.6818V75.8299C75.7477 74.1539 77.2147 72.6884 78.8892 72.6884H100.884C102.56 72.478 103.817 73.9436 103.817 75.8285Z" fill="black"/>
<path d="M25.8926 193.972C25.8926 196.696 28.1969 199 30.9203 199H100.884V152.707C100.884 151.031 102.351 149.565 104.026 149.565H126.021C127.697 149.565 129.162 151.032 129.162 152.707V199H148.853C151.577 199 153.881 196.696 153.881 193.972V129.455H25.8929L25.8926 193.972ZM50.401 152.706C50.401 151.03 51.868 149.565 53.5424 149.565H75.5375C77.2135 149.565 78.679 151.032 78.679 152.706V171.558C78.679 173.234 77.212 174.699 75.5375 174.699L53.5439 174.701C51.868 174.701 50.4024 173.234 50.4024 171.559L50.401 152.706Z" fill="#242424"/>
</svg>
