<svg width="16" height="17" viewBox="0 0 16 17" fill="none" xmlns="http://www.w3.org/2000/svg">
<path fill-rule="evenodd" clip-rule="evenodd" d="M1.96875 1.75854C1.89416 1.75854 1.82262 1.78942 1.76988 1.84439C1.71713 1.89935 1.6875 1.9739 1.6875 2.05164V4.98254C1.6875 5.21574 1.59861 5.43939 1.44037 5.60428C1.28214 5.76918 1.06753 5.86182 0.84375 5.86182C0.619974 5.86182 0.405362 5.76918 0.247129 5.60428C0.0888949 5.43939 3.33453e-09 5.21574 0 4.98254V2.05164C0 0.919133 0.882 0 1.96875 0H4.78125C5.00503 3.47491e-09 5.21964 0.0926374 5.37787 0.257533C5.53611 0.422429 5.625 0.646075 5.625 0.879272C5.625 1.11247 5.53611 1.33612 5.37787 1.50101C5.21964 1.66591 5.00503 1.75854 4.78125 1.75854H1.96875ZM10.125 0.879272C10.125 0.646075 10.2139 0.422429 10.3721 0.257533C10.5304 0.0926374 10.745 0 10.9688 0H13.7812C14.868 0 15.75 0.919133 15.75 2.05164V4.98254C15.75 5.21574 15.6611 5.43939 15.5029 5.60428C15.3446 5.76918 15.13 5.86182 14.9062 5.86182C14.6825 5.86182 14.4679 5.76918 14.3096 5.60428C14.1514 5.43939 14.0625 5.21574 14.0625 4.98254V2.05164C14.0625 1.9739 14.0329 1.89935 13.9801 1.84439C13.9274 1.78942 13.8558 1.75854 13.7812 1.75854H10.9688C10.745 1.75854 10.5304 1.66591 10.3721 1.50101C10.2139 1.33612 10.125 1.11247 10.125 0.879272ZM0.84375 10.5513C1.06753 10.5513 1.28214 10.6439 1.44037 10.8088C1.59861 10.9737 1.6875 11.1973 1.6875 11.4305V14.3615C1.6875 14.5232 1.8135 14.6545 1.96875 14.6545H4.78125C5.00503 14.6545 5.21964 14.7472 5.37787 14.9121C5.53611 15.077 5.625 15.3006 5.625 15.5338C5.625 15.767 5.53611 15.9907 5.37787 16.1556C5.21964 16.3204 5.00503 16.4131 4.78125 16.4131H1.96875C1.44661 16.4131 0.945846 16.1969 0.576634 15.8122C0.207421 15.4274 0 14.9056 0 14.3615V11.4305C0 11.1973 0.0888949 10.9737 0.247129 10.8088C0.405362 10.6439 0.619974 10.5513 0.84375 10.5513ZM14.9062 10.5513C15.13 10.5513 15.3446 10.6439 15.5029 10.8088C15.6611 10.9737 15.75 11.1973 15.75 11.4305V14.3615C15.75 14.9056 15.5426 15.4274 15.1734 15.8122C14.8042 16.1969 14.3034 16.4131 13.7812 16.4131H10.9688C10.745 16.4131 10.5304 16.3204 10.3721 16.1556C10.2139 15.9907 10.125 15.767 10.125 15.5338C10.125 15.3006 10.2139 15.077 10.3721 14.9121C10.5304 14.7472 10.745 14.6545 10.9688 14.6545H13.7812C13.8558 14.6545 13.9274 14.6237 13.9801 14.5687C14.0329 14.5137 14.0625 14.4392 14.0625 14.3615V11.4305C14.0625 11.1973 14.1514 10.9737 14.3096 10.8088C14.4679 10.6439 14.6825 10.5513 14.9062 10.5513Z" fill="#336666"/>
</svg>
