<svg width="21" height="21" viewBox="0 0 21 21" fill="none" xmlns="http://www.w3.org/2000/svg">
<path d="M5.5 13.3125C7.0533 13.3125 8.3125 12.0533 8.3125 10.5C8.3125 8.9467 7.0533 7.6875 5.5 7.6875C3.9467 7.6875 2.6875 8.9467 2.6875 10.5C2.6875 12.0533 3.9467 13.3125 5.5 13.3125Z" stroke="#242424" stroke-width="2" stroke-linecap="round" stroke-linejoin="round"/>
<path d="M15.5 18.3125C17.0533 18.3125 18.3125 17.0533 18.3125 15.5C18.3125 13.9467 17.0533 12.6875 15.5 12.6875C13.9467 12.6875 12.6875 13.9467 12.6875 15.5C12.6875 17.0533 13.9467 18.3125 15.5 18.3125Z" stroke="#242424" stroke-width="2" stroke-linecap="round" stroke-linejoin="round"/>
<path d="M15.5 8.3125C17.0533 8.3125 18.3125 7.0533 18.3125 5.5C18.3125 3.9467 17.0533 2.6875 15.5 2.6875C13.9467 2.6875 12.6875 3.9467 12.6875 5.5C12.6875 7.0533 13.9467 8.3125 15.5 8.3125Z" stroke="#242424" stroke-width="2" stroke-linecap="round" stroke-linejoin="round"/>
<path d="M8 9.25L13 6.75M8 11.75L13 14.25L8 11.75Z" stroke="#242424" stroke-width="2" stroke-linecap="round" stroke-linejoin="round"/>
</svg>
