<svg width="60" height="60" viewBox="0 0 60 60" fill="none" xmlns="http://www.w3.org/2000/svg">
<g filter="url(#filter0_d_915_5070)">
<rect x="10" y="6" width="40" height="40" rx="20" fill="#336666"/>
</g>
<g clip-path="url(#clip0_915_5070)">
<path d="M31.3683 35.5965C36.9618 27.3684 38 26.5239 38 23.5C38 19.3579 34.6908 16 30.6087 16C26.5266 16 23.2174 19.3579 23.2174 23.5C23.2174 26.5239 24.2556 27.3684 29.8491 35.5965C30.2161 36.1345 31.0013 36.1345 31.3683 35.5965ZM30.6087 26.625C28.9078 26.625 27.529 25.2259 27.529 23.5C27.529 21.7741 28.9078 20.375 30.6087 20.375C32.3096 20.375 33.6884 21.7741 33.6884 23.5C33.6884 25.2259 32.3096 26.625 30.6087 26.625Z" fill="white"/>
</g>
<defs>
<filter id="filter0_d_915_5070" x="0" y="0" width="60" height="60" filterUnits="userSpaceOnUse" color-interpolation-filters="sRGB">
<feFlood flood-opacity="0" result="BackgroundImageFix"/>
<feColorMatrix in="SourceAlpha" type="matrix" values="0 0 0 0 0 0 0 0 0 0 0 0 0 0 0 0 0 0 127 0" result="hardAlpha"/>
<feOffset dy="4"/>
<feGaussianBlur stdDeviation="5"/>
<feComposite in2="hardAlpha" operator="out"/>
<feColorMatrix type="matrix" values="0 0 0 0 0 0 0 0 0 0 0 0 0 0 0 0 0 0 0.1 0"/>
<feBlend mode="normal" in2="BackgroundImageFix" result="effect1_dropShadow_915_5070"/>
<feBlend mode="normal" in="SourceGraphic" in2="effect1_dropShadow_915_5070" result="shape"/>
</filter>
<clipPath id="clip0_915_5070">
<rect width="14.7826" height="20" fill="white" transform="matrix(-1 0 0 1 38 16)"/>
</clipPath>
</defs>
</svg>
