<svg width="41" height="40" viewBox="0 0 41 40" fill="none" xmlns="http://www.w3.org/2000/svg">
<path d="M28.7989 39.9926C27.1071 40.0021 25.4233 39.7636 23.8017 39.2843C18.5136 37.4782 13.7349 34.4427 9.86242 30.4299C6.0456 26.7366 3.05861 22.2803 1.09804 17.3548C-0.859557 11.8797 -0.19225 7.29027 3.04073 4.07316L5.79867 1.22514C6.6785 0.353868 7.89855 -0.088855 9.1352 0.0148686C10.3669 0.0952433 11.5271 0.61999 12.3976 1.49061L16.9354 6.00646C17.9108 6.98214 18.4957 8.27809 18.5815 9.65171V10.2717C18.6609 11.165 18.4481 12.0593 17.9754 12.8226C17.5024 13.5858 16.7943 14.1765 15.9566 14.5069L13.9398 15.3037C13.3079 15.5452 12.8008 16.0291 12.5314 16.6467C12.2199 17.3928 12.2199 18.2322 12.5314 18.9782C13.3466 20.8773 14.531 22.5974 16.0162 24.0402C17.6375 25.6697 19.5033 27.0388 21.5472 28.0985C22.4522 28.6209 23.5518 28.6865 24.513 28.2754C25.2287 27.9394 25.7371 27.2795 25.8775 26.5045L26.2333 24.8812C26.4339 23.8811 26.9996 22.99 27.8208 22.3797C28.642 21.7693 29.6612 21.483 30.682 21.5756C32.056 21.6862 33.345 22.2831 34.3151 23.2578L38.8678 27.7885C39.7787 28.6222 40.3209 29.7808 40.3762 31.0111C40.4318 32.2415 39.9962 33.4438 39.164 34.3556L36.3764 37.0857C34.3579 39.0473 31.6185 40.0983 28.7989 39.9926ZM8.82464 2.95146C8.48238 2.94059 8.15039 3.0684 7.90507 3.3059L5.14679 6.05052C2.74466 8.42655 2.27005 11.8652 3.88632 16.2483C5.6969 20.7632 8.45188 24.843 11.9681 28.217C15.4864 31.8939 19.8395 34.6773 24.6618 36.3336C27.5385 37.2042 31.513 37.6617 34.2413 34.9613L36.9996 32.2163C37.2641 31.8533 37.3789 31.4037 37.321 30.9593C37.2631 30.515 37.0367 30.1092 36.6881 29.8256L32.1504 25.3097C31.6906 24.8597 31.0875 24.583 30.445 24.5277C30.1382 24.4875 29.827 24.5639 29.5745 24.7418C29.3216 24.9194 29.1452 25.1855 29.0807 25.4869L28.7397 27.1102C28.4124 28.7823 27.3138 30.2034 25.7739 30.9472C23.9878 31.7453 21.9293 31.6633 20.213 30.7258C17.9652 29.51 15.9153 27.9627 14.1332 26.1362C12.3427 24.4209 10.9112 22.3694 9.92179 20.1005C9.29553 18.629 9.29553 16.9679 9.92179 15.496C10.4964 14.1412 11.5987 13.0762 12.9767 12.5445L14.9935 11.7625C15.2437 11.6577 15.4519 11.4736 15.586 11.2387C15.72 11.0039 15.7723 10.7315 15.7346 10.464V9.85886C15.6701 9.204 15.3761 8.59293 14.9044 8.13208L10.2925 3.60172C9.92942 3.23937 9.45377 3.01044 8.94301 2.95213L8.82464 2.95146Z" fill="#336666"/>
</svg>
