<svg width="28" height="20" viewBox="0 0 28 20" fill="none" xmlns="http://www.w3.org/2000/svg">
<path d="M18.3512 10.292C18.3512 12.811 16.3092 14.8531 13.7902 14.8531C11.2713 14.8531 9.22925 12.811 9.22925 10.292C9.22925 7.773 11.2713 5.73096 13.7902 5.73096C16.3092 5.73096 18.3512 7.773 18.3512 10.292Z" stroke="white" stroke-width="2"/>
<path d="M25.5022 9.21724C25.8858 9.70182 26.0776 9.94411 26.0776 10.292C26.0776 10.6399 25.8858 10.8822 25.5022 11.3668C23.7182 13.6204 19.1474 18.6336 13.7903 18.6336C8.43315 18.6336 3.86237 13.6204 2.07832 11.3668C1.69471 10.8822 1.5029 10.6399 1.5029 10.292C1.5029 9.94411 1.69471 9.70182 2.07832 9.21724C3.86237 6.96367 8.43315 1.95044 13.7903 1.95044C19.1474 1.95044 23.7182 6.96367 25.5022 9.21724Z" stroke="white" stroke-width="2"/>
</svg>
