<svg width="47" height="40" viewBox="0 0 47 40" fill="none" xmlns="http://www.w3.org/2000/svg">
<path d="M38.3327 39.9999H8.33319C6.12304 39.9999 4.00364 39.1219 2.44081 37.5591C0.877985 35.9962 0 33.8768 0 31.6667V8.33375C0.00446421 6.07636 0.92446 3.91716 2.54977 2.35062C2.85891 2.06007 3.26739 1.89825 3.69146 1.89825C4.11593 1.89825 4.52404 2.06007 4.83315 2.35062L19.9996 16.2837C20.9222 17.1315 22.1297 17.6022 23.3826 17.6022C24.636 17.6022 25.8436 17.1316 26.7661 16.2837L41.8325 2.33348C42.1417 2.04293 42.5498 1.8811 42.9742 1.8811C43.3983 1.8811 43.8068 2.04293 44.1159 2.33348C45.7453 3.90412 46.6657 6.06998 46.6657 8.33337V31.6663C46.6657 33.8765 45.7877 35.9958 44.2249 37.5587C42.662 39.1215 40.5426 39.9995 38.3325 39.9995L38.3327 39.9999ZM3.89993 6.00046C3.52457 6.72069 3.33 7.52167 3.33335 8.33375V31.6667C3.33335 32.9929 3.86012 34.2645 4.79761 35.2023C5.73547 36.1398 7.007 36.6666 8.33327 36.6666H38.3327C39.659 36.6666 40.9305 36.1398 41.8684 35.2023C42.8059 34.2645 43.3327 32.9929 43.3327 31.6667V8.33375C43.336 7.52164 43.1414 6.72064 42.7661 6.00046L28.9825 18.7164C27.4435 20.136 25.4264 20.9244 23.3327 20.9244C21.239 20.9244 19.2219 20.1361 17.6829 18.7164L3.89993 6.00046Z" fill="#336666"/>
<path d="M23.3322 20.9165C21.2419 20.9232 19.2252 20.1438 17.6824 18.7331L2.56555 4.76668C2.23111 4.45642 2.0384 4.02265 2.03245 3.56651C2.02501 3.10967 2.20581 2.66995 2.53244 2.35006C4.0867 0.843033 6.16704 0 8.33215 0H38.3316C40.4967 0 42.5771 0.842995 44.1313 2.35006C44.458 2.66999 44.6388 3.10972 44.6313 3.56651C44.6254 4.02261 44.4327 4.45638 44.0982 4.76668L28.9813 18.7169V18.7165C27.4412 20.1336 25.4241 20.9189 23.3315 20.9167L23.3322 20.9165ZM6.36587 3.73298L19.999 16.2832C20.9216 17.1311 22.1291 17.6017 23.3821 17.6017C24.6354 17.6017 25.843 17.1311 26.7655 16.2832L40.3481 3.75013C39.712 3.47297 39.0252 3.33087 38.3314 3.33347H8.33193C7.65597 3.33235 6.98709 3.46851 6.36549 3.73338L6.36587 3.73298Z" fill="#336666"/>
</svg>
