<svg width="20" height="20" viewBox="0 0 20 20" fill="none" xmlns="http://www.w3.org/2000/svg">
<path d="M18.8889 9.32224C19.0954 9.16842 19.2485 8.95383 19.3269 8.70857C19.4053 8.46332 19.4049 8.19968 19.3259 7.95463C19.2469 7.70958 19.0931 7.49541 18.8862 7.34215C18.6793 7.18889 18.4297 7.10422 18.1722 7.10001L13.1722 6.91112C13.1476 6.90943 13.1241 6.90066 13.1044 6.88587C13.0846 6.87109 13.0696 6.85092 13.0611 6.82779L11.3333 2.16112C11.2465 1.9237 11.0889 1.71869 10.8817 1.57384C10.6745 1.429 10.4278 1.35132 10.175 1.35132C9.9222 1.35132 9.67551 1.429 9.46833 1.57384C9.26114 1.71869 9.10347 1.9237 9.01666 2.16112L7.29444 6.84446C7.28593 6.86758 7.27091 6.88775 7.2512 6.90254C7.23148 6.91732 7.20791 6.92609 7.18333 6.92779L2.18333 7.11668C1.92589 7.12088 1.67622 7.20555 1.46933 7.35882C1.26244 7.51208 1.1087 7.72625 1.02967 7.9713C0.950642 8.21635 0.950288 8.47998 1.02866 8.72524C1.10702 8.9705 1.26019 9.18508 1.46666 9.3389L5.38889 12.4222C5.40852 12.4377 5.42319 12.4585 5.43109 12.4822C5.43899 12.5059 5.43977 12.5314 5.43333 12.5556L4.08333 17.3389C4.01337 17.5825 4.02015 17.8417 4.10274 18.0813C4.18533 18.3209 4.33972 18.5292 4.54491 18.6779C4.7501 18.8267 4.99613 18.9086 5.24953 18.9125C5.50292 18.9165 5.75138 18.8423 5.96111 18.7L10.1056 15.9222C10.126 15.9081 10.1502 15.9006 10.175 15.9006C10.1998 15.9006 10.224 15.9081 10.2444 15.9222L14.3889 18.7C14.5958 18.8471 14.8433 18.9262 15.0972 18.9262C15.3511 18.9262 15.5987 18.8471 15.8056 18.7C16.0108 18.5527 16.1653 18.3454 16.2479 18.1066C16.3305 17.8678 16.337 17.6093 16.2667 17.3667L14.9056 12.5667C14.8983 12.5426 14.8987 12.5168 14.9067 12.493C14.9146 12.4691 14.9298 12.4483 14.95 12.4333L18.8889 9.32224Z" fill="#FFCB00"/>
</svg>
