<svg width="36" height="36" viewBox="0 0 36 36" fill="none" xmlns="http://www.w3.org/2000/svg">
<path d="M27.8036 20.7321H15.2679V8.19643C15.2673 8.01189 15.1938 7.83507 15.0633 7.70459C14.9328 7.5741 14.756 7.50055 14.5714 7.5H9.69643C9.51189 7.50055 9.33507 7.5741 9.20459 7.70459C9.0741 7.83507 9.00055 8.01189 9 8.19643V26.3036C9.00055 26.4881 9.0741 26.6649 9.20459 26.7954C9.33507 26.9259 9.51189 26.9994 9.69643 27H27.8036C27.9881 26.9994 28.1649 26.9259 28.2954 26.7954C28.4259 26.6649 28.4994 26.4881 28.5 26.3036V21.4286C28.4994 21.244 28.4259 21.0672 28.2954 20.9367C28.1649 20.8062 27.9881 20.7327 27.8036 20.7321V20.7321ZM27.1071 25.6071H10.3929V8.89286H13.875V10.2857H13.1786C12.9939 10.2857 12.8167 10.3591 12.6861 10.4897C12.5555 10.6203 12.4821 10.7974 12.4821 10.9821C12.4821 11.1668 12.5555 11.344 12.6861 11.4746C12.8167 11.6052 12.9939 11.6786 13.1786 11.6786H13.875V13.7679H13.1786C12.9939 13.7679 12.8167 13.8412 12.6861 13.9718C12.5555 14.1024 12.4821 14.2796 12.4821 14.4643C12.4821 14.649 12.5555 14.8261 12.6861 14.9567C12.8167 15.0873 12.9939 15.1607 13.1786 15.1607H13.875V17.25H13.1786C12.9939 17.25 12.8167 17.3234 12.6861 17.454C12.5555 17.5846 12.4821 17.7617 12.4821 17.9464C12.4821 18.1311 12.5555 18.3083 12.6861 18.4389C12.8167 18.5695 12.9939 18.6429 13.1786 18.6429H13.875V22.125H17.3571V22.8214C17.3571 23.0061 17.4305 23.1833 17.5611 23.3139C17.6917 23.4445 17.8689 23.5179 18.0536 23.5179C18.2383 23.5179 18.4154 23.4445 18.546 23.3139C18.6766 23.1833 18.75 23.0061 18.75 22.8214V22.125H20.8393V22.8214C20.8393 23.0061 20.9127 23.1833 21.0433 23.3139C21.1739 23.4445 21.351 23.5179 21.5357 23.5179C21.7204 23.5179 21.8976 23.4445 22.0282 23.3139C22.1588 23.1833 22.2321 23.0061 22.2321 22.8214V22.125H24.3214V22.8214C24.3214 23.0061 24.3948 23.1833 24.5254 23.3139C24.656 23.4445 24.8332 23.5179 25.0179 23.5179C25.2026 23.5179 25.3797 23.4445 25.5103 23.3139C25.6409 23.1833 25.7143 23.0061 25.7143 22.8214V22.125H27.1071V25.6071Z" fill="#242424"/>
</svg>
