<svg width="1372" height="1372" viewBox="0 0 1372 1372" fill="none" xmlns="http://www.w3.org/2000/svg">
<g opacity="0.1">
<path d="M548.38 1009.82C464.78 974.257 397.714 907.212 362.134 823.612C344.184 781.308 334.145 734.82 334.145 685.977C334.145 637.157 344.161 590.646 362.134 548.366C397.714 464.72 464.758 397.743 548.38 362.163C590.659 344.166 637.146 334.174 685.989 334.174C734.808 334.174 781.318 344.166 823.598 362.163C907.22 397.743 974.218 464.743 1009.82 548.366C1027.82 590.646 1037.81 637.157 1037.81 685.977C1037.81 734.82 1027.82 781.308 1009.82 823.612C974.218 907.189 907.266 974.257 823.598 1009.82C781.318 1027.79 734.808 1037.8 685.989 1037.8C637.146 1037.8 590.659 1027.79 548.38 1009.82ZM0 686C0 1064.83 307.14 1372 685.989 1372C1064.86 1372 1371.98 1064.83 1371.98 686C1371.98 307.122 1064.86 0 685.989 0C307.14 0 0 307.122 0 686Z" fill="url(#paint0_linear_536_5080)"/>
<path opacity="0.25" d="M201.429 686.001C182.404 632.287 171.497 574.732 171.497 514.501C171.497 416.403 199.485 325.074 247.116 247.076C99.1023 337.422 0 499.935 0 686.001C0 872.067 99.1023 1034.58 247.116 1124.93C199.485 1046.93 171.497 955.599 171.497 857.501C171.497 797.27 182.381 739.737 201.429 686.001Z" fill="white"/>
<path opacity="0.25" d="M1372 686.001C1372 499.935 1272.9 337.422 1124.93 247.076C1172.56 325.074 1200.5 416.403 1200.5 514.501C1200.5 574.732 1189.6 632.287 1170.57 686.001C1189.6 739.737 1200.5 797.27 1200.5 857.501C1200.5 955.599 1172.56 1046.93 1124.93 1124.93C1272.9 1034.58 1372 872.067 1372 686.001Z" fill="white"/>
<path opacity="0.25" d="M686.012 1170.59C632.276 1189.61 574.745 1200.5 514.515 1200.5C416.418 1200.5 325.091 1172.53 247.094 1124.9C337.438 1272.89 499.972 1372 686.012 1372C872.052 1372 1034.59 1272.89 1124.93 1124.9C1046.93 1172.53 955.606 1200.5 857.509 1200.5C797.279 1200.5 739.725 1189.64 686.012 1170.59Z" fill="white"/>
<path opacity="0.25" d="M418.59 953.426C318.527 892.326 241.148 798.23 201.406 686C182.404 739.737 171.52 797.246 171.52 857.5C171.52 955.598 199.462 1046.93 247.093 1124.93C325.09 1172.53 416.418 1200.5 514.514 1200.5C574.744 1200.5 632.298 1189.59 686.011 1170.61C573.783 1130.87 479.689 1053.47 418.59 953.426Z" fill="white"/>
<path opacity="0.25" d="M418.59 953.426C318.527 892.326 241.148 798.23 201.406 686C182.404 739.737 171.52 797.246 171.52 857.5C171.52 955.598 199.462 1046.93 247.093 1124.93C325.09 1172.53 416.418 1200.5 514.514 1200.5C574.744 1200.5 632.298 1189.59 686.011 1170.61C573.783 1130.87 479.689 1053.47 418.59 953.426Z" fill="white"/>
<path opacity="0.25" d="M1170.59 686C1130.85 798.23 1053.5 892.28 953.41 953.426C892.311 1053.49 798.217 1130.87 686.012 1170.59C739.748 1189.62 797.279 1200.5 857.509 1200.5C955.582 1200.5 1046.91 1172.56 1124.91 1124.93C1172.54 1046.93 1200.5 955.598 1200.5 857.5C1200.5 797.269 1189.62 739.737 1170.59 686Z" fill="white"/>
<path opacity="0.25" d="M1170.59 686C1130.85 798.23 1053.5 892.28 953.41 953.426C892.311 1053.49 798.217 1130.87 686.012 1170.59C739.748 1189.62 797.279 1200.5 857.509 1200.5C955.582 1200.5 1046.91 1172.56 1124.91 1124.93C1172.54 1046.93 1200.5 955.598 1200.5 857.5C1200.5 797.269 1189.62 739.737 1170.59 686Z" fill="white"/>
<path opacity="0.25" d="M548.378 1009.81C502.143 996.964 458.605 977.87 418.566 953.425C479.688 1053.49 573.76 1130.85 685.988 1170.59C798.216 1130.85 892.287 1053.49 953.386 953.425C913.347 977.847 869.856 996.964 823.574 1009.81C781.317 1027.81 734.807 1037.8 685.965 1037.8C637.122 1037.8 590.681 1027.81 548.378 1009.81Z" fill="white"/>
<path opacity="0.25" d="M548.378 1009.81C502.143 996.964 458.605 977.87 418.566 953.425C479.688 1053.49 573.76 1130.85 685.988 1170.59C798.216 1130.85 892.287 1053.49 953.386 953.425C913.347 977.847 869.856 996.964 823.574 1009.81C781.317 1027.81 734.807 1037.8 685.965 1037.8C637.122 1037.8 590.681 1027.81 548.378 1009.81Z" fill="white"/>
<path opacity="0.25" d="M548.378 1009.81C502.143 996.964 458.605 977.87 418.566 953.425C479.688 1053.49 573.76 1130.85 685.988 1170.59C798.216 1130.85 892.287 1053.49 953.386 953.425C913.347 977.847 869.856 996.964 823.574 1009.81C781.317 1027.81 734.807 1037.8 685.965 1037.8C637.122 1037.8 590.681 1027.81 548.378 1009.81Z" fill="white"/>
<path opacity="0.25" d="M686.012 201.41C739.725 182.385 797.279 171.5 857.509 171.5C955.606 171.5 1046.93 199.466 1124.93 247.097C1034.59 99.1041 872.052 0 686.012 0C499.972 0 337.438 99.1041 247.094 247.097C325.091 199.466 416.418 171.5 514.515 171.5C574.745 171.5 632.276 182.385 686.012 201.41Z" fill="white"/>
<path opacity="0.25" d="M686.011 201.41C632.275 182.385 574.744 171.5 514.514 171.5C416.418 171.5 325.09 199.466 247.093 247.097C199.462 325.095 171.52 416.425 171.52 514.5C171.52 574.731 182.404 632.286 201.429 686C241.147 573.793 318.527 479.697 418.59 418.597C479.689 318.51 573.783 241.152 686.011 201.41Z" fill="white"/>
<path opacity="0.25" d="M686.011 201.41C632.275 182.385 574.744 171.5 514.514 171.5C416.418 171.5 325.09 199.466 247.093 247.097C199.462 325.095 171.52 416.425 171.52 514.5C171.52 574.731 182.404 632.286 201.429 686C241.147 573.793 318.527 479.697 418.59 418.597C479.689 318.51 573.783 241.152 686.011 201.41Z" fill="white"/>
<path opacity="0.25" d="M1124.91 247.075C1046.93 199.444 955.605 171.5 857.509 171.5C797.256 171.5 739.725 182.385 686.012 201.387C798.217 241.129 892.311 318.51 953.41 418.575C1053.47 479.675 1130.88 573.77 1170.59 686C1189.6 632.286 1200.5 574.731 1200.5 514.5C1200.5 416.425 1172.54 325.073 1124.91 247.075Z" fill="white"/>
<path opacity="0.25" d="M1124.91 247.075C1046.93 199.444 955.605 171.5 857.509 171.5C797.256 171.5 739.725 182.385 686.012 201.387C798.217 241.129 892.311 318.51 953.41 418.575C1053.47 479.675 1130.88 573.77 1170.59 686C1189.6 632.286 1200.5 574.731 1200.5 514.5C1200.5 416.425 1172.54 325.073 1124.91 247.075Z" fill="white"/>
<path opacity="0.25" d="M823.598 362.162C869.834 374.99 913.371 394.107 953.433 418.574C892.311 318.487 798.217 241.129 685.989 201.386C573.807 241.129 479.712 318.487 418.613 418.574C458.652 394.107 502.121 374.99 548.425 362.162C590.682 344.166 637.192 334.196 686.012 334.196C734.854 334.219 781.341 344.189 823.598 362.162Z" fill="white"/>
<path opacity="0.25" d="M823.598 362.162C869.834 374.99 913.371 394.107 953.433 418.574C892.311 318.487 798.217 241.129 685.989 201.386C573.807 241.129 479.712 318.487 418.613 418.574C458.652 394.107 502.121 374.99 548.425 362.162C590.682 344.166 637.192 334.196 686.012 334.196C734.854 334.219 781.341 344.189 823.598 362.162Z" fill="white"/>
<path opacity="0.25" d="M823.598 362.162C869.834 374.99 913.371 394.107 953.433 418.574C892.311 318.487 798.217 241.129 685.989 201.386C573.807 241.129 479.712 318.487 418.613 418.574C458.652 394.107 502.121 374.99 548.425 362.162C590.682 344.166 637.192 334.196 686.012 334.196C734.854 334.219 781.341 344.189 823.598 362.162Z" fill="white"/>
<path opacity="0.25" d="M362.203 548.39C375.031 502.13 394.124 458.615 418.591 418.576C318.528 479.698 241.171 573.771 201.43 686.001C241.171 798.23 318.528 892.327 418.591 953.426C394.147 913.364 375.031 869.871 362.203 823.589C344.207 781.332 334.214 734.844 334.214 685.978C334.214 637.158 344.207 590.67 362.203 548.39Z" fill="white"/>
<path opacity="0.25" d="M362.203 548.39C375.031 502.13 394.124 458.615 418.591 418.576C318.528 479.698 241.171 573.771 201.43 686.001C241.171 798.23 318.528 892.327 418.591 953.426C394.147 913.364 375.031 869.871 362.203 823.589C344.207 781.332 334.214 734.844 334.214 685.978C334.214 637.158 344.207 590.67 362.203 548.39Z" fill="white"/>
<path opacity="0.25" d="M362.203 548.39C375.031 502.13 394.124 458.615 418.591 418.576C318.528 479.698 241.171 573.771 201.43 686.001C241.171 798.23 318.528 892.327 418.591 953.426C394.147 913.364 375.031 869.871 362.203 823.589C344.207 781.332 334.214 734.844 334.214 685.978C334.214 637.158 344.207 590.67 362.203 548.39Z" fill="white"/>
<path opacity="0.25" d="M953.434 418.576C977.878 458.615 996.994 502.13 1009.82 548.39C1027.82 590.67 1037.79 637.157 1037.79 686.001C1037.79 734.844 1027.82 781.332 1009.82 823.589C996.994 869.849 977.901 913.387 953.434 953.426C1053.5 892.304 1130.85 798.23 1170.59 686.001C1130.85 573.771 1053.5 479.698 953.434 418.576Z" fill="white"/>
<path opacity="0.25" d="M953.434 418.576C977.878 458.615 996.994 502.13 1009.82 548.39C1027.82 590.67 1037.79 637.157 1037.79 686.001C1037.79 734.844 1027.82 781.332 1009.82 823.589C996.994 869.849 977.901 913.387 953.434 953.426C1053.5 892.304 1130.85 798.23 1170.59 686.001C1130.85 573.771 1053.5 479.698 953.434 418.576Z" fill="white"/>
<path opacity="0.25" d="M953.434 418.576C977.878 458.615 996.994 502.13 1009.82 548.39C1027.82 590.67 1037.79 637.157 1037.79 686.001C1037.79 734.844 1027.82 781.332 1009.82 823.589C996.994 869.849 977.901 913.387 953.434 953.426C1053.5 892.304 1130.85 798.23 1170.59 686.001C1130.85 573.771 1053.5 479.698 953.434 418.576Z" fill="white"/>
<path opacity="0.25" d="M1009.82 548.411C996.993 502.152 977.9 458.636 953.433 418.597C913.371 394.13 869.856 375.014 823.598 362.185C907.243 397.766 974.241 464.788 1009.82 548.411Z" fill="white"/>
<path opacity="0.25" d="M1009.82 548.411C996.993 502.152 977.9 458.636 953.433 418.597C913.371 394.13 869.856 375.014 823.598 362.185C907.243 397.766 974.241 464.788 1009.82 548.411Z" fill="white"/>
<path opacity="0.25" d="M1009.82 548.411C996.993 502.152 977.9 458.636 953.433 418.597C913.371 394.13 869.856 375.014 823.598 362.185C907.243 397.766 974.241 464.788 1009.82 548.411Z" fill="white"/>
<path opacity="0.25" d="M1009.82 548.411C996.993 502.152 977.9 458.636 953.433 418.597C913.371 394.13 869.856 375.014 823.598 362.185C907.243 397.766 974.241 464.788 1009.82 548.411Z" fill="white"/>
<path opacity="0.25" d="M362.203 823.611C375.031 869.871 394.125 913.409 418.591 953.449C458.63 977.87 502.145 996.987 548.403 1009.84C464.781 974.257 397.76 907.258 362.203 823.611Z" fill="white"/>
<path opacity="0.25" d="M362.203 823.611C375.031 869.871 394.125 913.409 418.591 953.449C458.63 977.87 502.145 996.987 548.403 1009.84C464.781 974.257 397.76 907.258 362.203 823.611Z" fill="white"/>
<path opacity="0.25" d="M362.203 823.611C375.031 869.871 394.125 913.409 418.591 953.449C458.63 977.87 502.145 996.987 548.403 1009.84C464.781 974.257 397.76 907.258 362.203 823.611Z" fill="white"/>
<path opacity="0.25" d="M362.203 823.611C375.031 869.871 394.125 913.409 418.591 953.449C458.63 977.87 502.145 996.987 548.403 1009.84C464.781 974.257 397.76 907.258 362.203 823.611Z" fill="white"/>
<path opacity="0.25" d="M823.598 1009.81C869.856 996.964 913.394 977.87 953.433 953.425C977.854 913.386 996.993 869.87 1009.84 823.588C974.218 907.257 907.243 974.257 823.598 1009.81Z" fill="white"/>
<path opacity="0.25" d="M823.598 1009.81C869.856 996.964 913.394 977.87 953.433 953.425C977.854 913.386 996.993 869.87 1009.84 823.588C974.218 907.257 907.243 974.257 823.598 1009.81Z" fill="white"/>
<path opacity="0.25" d="M823.598 1009.81C869.856 996.964 913.394 977.87 953.433 953.425C977.854 913.386 996.993 869.87 1009.84 823.588C974.218 907.257 907.243 974.257 823.598 1009.81Z" fill="white"/>
<path opacity="0.25" d="M823.598 1009.81C869.856 996.964 913.394 977.87 953.433 953.425C977.854 913.386 996.993 869.87 1009.84 823.588C974.218 907.257 907.243 974.257 823.598 1009.81Z" fill="white"/>
<path opacity="0.25" d="M548.402 362.163C502.144 374.991 458.629 394.108 418.59 418.575C394.123 458.615 375.007 502.13 362.156 548.389C397.759 464.766 464.78 397.766 548.402 362.163Z" fill="white"/>
<path opacity="0.25" d="M548.402 362.163C502.144 374.991 458.629 394.108 418.59 418.575C394.123 458.615 375.007 502.13 362.156 548.389C397.759 464.766 464.78 397.766 548.402 362.163Z" fill="white"/>
<path opacity="0.25" d="M548.402 362.163C502.144 374.991 458.629 394.108 418.59 418.575C394.123 458.615 375.007 502.13 362.156 548.389C397.759 464.766 464.78 397.766 548.402 362.163Z" fill="white"/>
<path opacity="0.25" d="M548.402 362.163C502.144 374.991 458.629 394.108 418.59 418.575C394.123 458.615 375.007 502.13 362.156 548.389C397.759 464.766 464.78 397.766 548.402 362.163Z" fill="white"/>
</g>
<defs>
<linearGradient id="paint0_linear_536_5080" x1="685.989" y1="0" x2="685.989" y2="1372" gradientUnits="userSpaceOnUse">
<stop stop-color="#357679"/>
<stop offset="1" stop-color="#ADD163"/>
</linearGradient>
</defs>
</svg>
