<svg width="43" height="42" viewBox="0 0 43 42" fill="none" xmlns="http://www.w3.org/2000/svg">
<path d="M16.7998 30.9127C14.2387 29.8242 12.1841 27.7718 11.0941 25.2126C10.5442 23.9176 10.2366 22.4945 10.2366 20.9993C10.2366 19.5048 10.5435 18.081 11.0941 16.7867C12.1841 14.2261 14.238 12.1758 16.7998 11.0866C18.095 10.5357 19.5192 10.2298 21.0155 10.2298C22.5111 10.2298 23.9359 10.5357 25.2312 11.0866C27.793 12.1758 29.8455 14.2268 30.9362 16.7867C31.4875 18.081 31.7936 19.5048 31.7936 20.9993C31.7936 22.4945 31.4875 23.9176 30.9362 25.2126C29.8455 27.7711 27.7944 29.8242 25.2312 30.9127C23.9359 31.4629 22.5111 31.7695 21.0155 31.7695C19.5192 31.7695 18.095 31.4629 16.7998 30.9127ZM0 21C0 32.5969 9.40932 42 21.0155 42C32.6223 42 42.0309 32.5969 42.0309 21C42.0309 9.4017 32.6223 0 21.0155 0C9.40932 0 0 9.4017 0 21Z" fill="url(#paint0_linear_341_2500)"/>
<path opacity="0.25" d="M6.17083 21C5.58801 19.3557 5.25387 17.5938 5.25387 15.75C5.25387 12.747 6.11129 9.95118 7.57047 7.56348C3.03603 10.3292 0 15.3041 0 21C0 26.6959 3.03603 31.6708 7.57047 34.4365C6.11129 32.0488 5.25387 29.253 5.25387 26.25C5.25387 24.4062 5.58731 22.645 6.17083 21Z" fill="white"/>
<path opacity="0.25" d="M42.0317 21C42.0317 15.3041 38.9957 10.3292 34.4626 7.56348C35.9218 9.95118 36.7779 12.747 36.7779 15.75C36.7779 17.5938 36.4437 19.3557 35.8609 21C36.4437 22.645 36.7779 24.4062 36.7779 26.25C36.7779 29.253 35.9218 32.0488 34.4626 34.4365C38.9957 31.6708 42.0317 26.6959 42.0317 21Z" fill="white"/>
<path opacity="0.25" d="M21.0162 35.8344C19.37 36.4168 17.6075 36.75 15.7623 36.75C12.7571 36.75 9.95928 35.8939 7.56982 34.4358C10.3376 38.9662 15.3168 42 21.0162 42C26.7156 42 31.6949 38.9662 34.4626 34.4358C32.0732 35.8939 29.2753 36.75 26.2701 36.75C24.4249 36.75 22.6617 36.4175 21.0162 35.8344Z" fill="white"/>
<path opacity="0.25" d="M12.8237 29.1865C9.75826 27.3161 7.38771 24.4356 6.17022 21C5.58809 22.645 5.25464 24.4055 5.25464 26.25C5.25464 29.253 6.11067 32.0488 7.56985 34.4365C9.95931 35.8939 12.7572 36.75 15.7624 36.75C17.6075 36.75 19.3707 36.4161 21.0162 35.8351C17.5781 34.6185 14.6955 32.249 12.8237 29.1865Z" fill="white"/>
<path opacity="0.25" d="M12.8237 29.1865C9.75826 27.3161 7.38771 24.4356 6.17022 21C5.58809 22.645 5.25464 24.4055 5.25464 26.25C5.25464 29.253 6.11067 32.0488 7.56985 34.4365C9.95931 35.8939 12.7572 36.75 15.7624 36.75C17.6075 36.75 19.3707 36.4161 21.0162 35.8351C17.5781 34.6185 14.6955 32.249 12.8237 29.1865Z" fill="white"/>
<path opacity="0.25" d="M35.8614 21C34.6439 24.4356 32.2741 27.3147 29.2079 29.1865C27.3362 32.2497 24.4535 34.6185 21.0161 35.8344C22.6623 36.4168 24.4248 36.75 26.27 36.75C29.2745 36.75 32.0723 35.8946 34.4618 34.4365C35.921 32.0488 36.7777 29.253 36.7777 26.25C36.7777 24.4062 36.4443 22.645 35.8614 21Z" fill="white"/>
<path opacity="0.25" d="M35.8614 21C34.6439 24.4356 32.2741 27.3147 29.2079 29.1865C27.3362 32.2497 24.4535 34.6185 21.0161 35.8344C22.6623 36.4168 24.4248 36.75 26.27 36.75C29.2745 36.75 32.0723 35.8946 34.4618 34.4365C35.921 32.0488 36.7777 29.253 36.7777 26.25C36.7777 24.4062 36.4443 22.645 35.8614 21Z" fill="white"/>
<path opacity="0.25" d="M16.7998 30.9127C15.3834 30.5193 14.0496 29.9348 12.823 29.1865C14.6955 32.2497 17.5774 34.6178 21.0155 35.8344C24.4537 34.6178 27.3356 32.2497 29.2074 29.1865C27.9808 29.9341 26.6484 30.5193 25.2305 30.9127C23.936 31.4636 22.5111 31.7695 21.0148 31.7695C19.5185 31.7695 18.0958 31.4636 16.7998 30.9127Z" fill="white"/>
<path opacity="0.25" d="M16.7998 30.9127C15.3834 30.5193 14.0496 29.9348 12.823 29.1865C14.6955 32.2497 17.5774 34.6178 21.0155 35.8344C24.4537 34.6178 27.3356 32.2497 29.2074 29.1865C27.9808 29.9341 26.6484 30.5193 25.2305 30.9127C23.936 31.4636 22.5111 31.7695 21.0148 31.7695C19.5185 31.7695 18.0958 31.4636 16.7998 30.9127Z" fill="white"/>
<path opacity="0.25" d="M16.7998 30.9127C15.3834 30.5193 14.0496 29.9348 12.823 29.1865C14.6955 32.2497 17.5774 34.6178 21.0155 35.8344C24.4537 34.6178 27.3356 32.2497 29.2074 29.1865C27.9808 29.9341 26.6484 30.5193 25.2305 30.9127C23.936 31.4636 22.5111 31.7695 21.0148 31.7695C19.5185 31.7695 18.0958 31.4636 16.7998 30.9127Z" fill="white"/>
<path opacity="0.25" d="M21.0162 6.16561C22.6617 5.58321 24.4249 5.25 26.2701 5.25C29.2753 5.25 32.0732 6.1061 34.4626 7.5642C31.6949 3.0338 26.7156 0 21.0162 0C15.3168 0 10.3376 3.0338 7.56982 7.5642C9.95928 6.1061 12.7571 5.25 15.7623 5.25C17.6075 5.25 19.37 5.58321 21.0162 6.16561Z" fill="white"/>
<path opacity="0.25" d="M21.0162 6.16561C19.37 5.58321 17.6075 5.25 15.7624 5.25C12.7572 5.25 9.95931 6.1061 7.56985 7.5642C6.11067 9.9519 5.25464 12.7477 5.25464 15.75C5.25464 17.5938 5.58808 19.3557 6.17091 21C7.38771 17.5651 9.75826 14.6846 12.8237 12.8142C14.6955 9.7503 17.5781 7.38221 21.0162 6.16561Z" fill="white"/>
<path opacity="0.25" d="M21.0162 6.16561C19.37 5.58321 17.6075 5.25 15.7624 5.25C12.7572 5.25 9.95931 6.1061 7.56985 7.5642C6.11067 9.9519 5.25464 12.7477 5.25464 15.75C5.25464 17.5938 5.58808 19.3557 6.17091 21C7.38771 17.5651 9.75826 14.6846 12.8237 12.8142C14.6955 9.7503 17.5781 7.38221 21.0162 6.16561Z" fill="white"/>
<path opacity="0.25" d="M34.4618 7.56352C32.0731 6.10542 29.2752 5.25 26.27 5.25C24.4241 5.25 22.6616 5.5832 21.0161 6.1649C24.4535 7.3815 27.3362 9.75032 29.2079 12.8135C32.2734 14.6839 34.6446 17.5644 35.8614 21C36.4436 19.3557 36.7777 17.5938 36.7777 15.75C36.7777 12.7477 35.921 9.95122 34.4618 7.56352Z" fill="white"/>
<path opacity="0.25" d="M34.4618 7.56352C32.0731 6.10542 29.2752 5.25 26.27 5.25C24.4241 5.25 22.6616 5.5832 21.0161 6.1649C24.4535 7.3815 27.3362 9.75032 29.2079 12.8135C32.2734 14.6839 34.6446 17.5644 35.8614 21C36.4436 19.3557 36.7777 17.5938 36.7777 15.75C36.7777 12.7477 35.921 9.95122 34.4618 7.56352Z" fill="white"/>
<path opacity="0.25" d="M25.231 11.0866C26.6475 11.4793 27.9813 12.0645 29.2086 12.8135C27.3361 9.74963 24.4535 7.38152 21.0154 6.16492C17.5786 7.38152 14.696 9.74963 12.8242 12.8135C14.0508 12.0645 15.3825 11.4793 16.801 11.0866C18.0956 10.5357 19.5204 10.2305 21.016 10.2305C22.5123 10.2312 23.9365 10.5364 25.231 11.0866Z" fill="white"/>
<path opacity="0.25" d="M25.231 11.0866C26.6475 11.4793 27.9813 12.0645 29.2086 12.8135C27.3361 9.74963 24.4535 7.38152 21.0154 6.16492C17.5786 7.38152 14.696 9.74963 12.8242 12.8135C14.0508 12.0645 15.3825 11.4793 16.801 11.0866C18.0956 10.5357 19.5204 10.2305 21.016 10.2305C22.5123 10.2312 23.9365 10.5364 25.231 11.0866Z" fill="white"/>
<path opacity="0.25" d="M25.231 11.0866C26.6475 11.4793 27.9813 12.0645 29.2086 12.8135C27.3361 9.74963 24.4535 7.38152 21.0154 6.16492C17.5786 7.38152 14.696 9.74963 12.8242 12.8135C14.0508 12.0645 15.3825 11.4793 16.801 11.0866C18.0956 10.5357 19.5204 10.2305 21.016 10.2305C22.5123 10.2312 23.9365 10.5364 25.231 11.0866Z" fill="white"/>
<path opacity="0.25" d="M11.0962 16.7874C11.4892 15.3713 12.0742 14.0392 12.8237 12.8135C9.75825 14.6846 7.38839 17.5644 6.1709 21C7.38839 24.4356 9.75825 27.3161 12.8237 29.1865C12.0749 27.9601 11.4892 26.6287 11.0962 25.2119C10.5449 23.9183 10.2388 22.4952 10.2388 20.9993C10.2388 19.5048 10.5449 18.0817 11.0962 16.7874Z" fill="white"/>
<path opacity="0.25" d="M11.0962 16.7874C11.4892 15.3713 12.0742 14.0392 12.8237 12.8135C9.75825 14.6846 7.38839 17.5644 6.1709 21C7.38839 24.4356 9.75825 27.3161 12.8237 29.1865C12.0749 27.9601 11.4892 26.6287 11.0962 25.2119C10.5449 23.9183 10.2388 22.4952 10.2388 20.9993C10.2388 19.5048 10.5449 18.0817 11.0962 16.7874Z" fill="white"/>
<path opacity="0.25" d="M11.0962 16.7874C11.4892 15.3713 12.0742 14.0392 12.8237 12.8135C9.75825 14.6846 7.38839 17.5644 6.1709 21C7.38839 24.4356 9.75825 27.3161 12.8237 29.1865C12.0749 27.9601 11.4892 26.6287 11.0962 25.2119C10.5449 23.9183 10.2388 22.4952 10.2388 20.9993C10.2388 19.5048 10.5449 18.0817 11.0962 16.7874Z" fill="white"/>
<path opacity="0.25" d="M29.2087 12.8135C29.9576 14.0392 30.5432 15.3713 30.9362 16.7874C31.4875 18.0817 31.7929 19.5048 31.7929 21C31.7929 22.4952 31.4875 23.9183 30.9362 25.2119C30.5432 26.628 29.9583 27.9608 29.2087 29.1865C32.2742 27.3154 34.644 24.4356 35.8615 21C34.644 17.5644 32.2742 14.6846 29.2087 12.8135Z" fill="white"/>
<path opacity="0.25" d="M29.2087 12.8135C29.9576 14.0392 30.5432 15.3713 30.9362 16.7874C31.4875 18.0817 31.7929 19.5048 31.7929 21C31.7929 22.4952 31.4875 23.9183 30.9362 25.2119C30.5432 26.628 29.9583 27.9608 29.2087 29.1865C32.2742 27.3154 34.644 24.4356 35.8615 21C34.644 17.5644 32.2742 14.6846 29.2087 12.8135Z" fill="white"/>
<path opacity="0.25" d="M29.2087 12.8135C29.9576 14.0392 30.5432 15.3713 30.9362 16.7874C31.4875 18.0817 31.7929 19.5048 31.7929 21C31.7929 22.4952 31.4875 23.9183 30.9362 25.2119C30.5432 26.628 29.9583 27.9608 29.2087 29.1865C32.2742 27.3154 34.644 24.4356 35.8615 21C34.644 17.5644 32.2742 14.6846 29.2087 12.8135Z" fill="white"/>
<path opacity="0.25" d="M30.9362 16.7881C30.5432 15.372 29.9583 14.0399 29.2087 12.8142C27.9814 12.0652 26.6483 11.48 25.2312 11.0873C27.7937 12.1765 29.8462 14.2282 30.9362 16.7881Z" fill="white"/>
<path opacity="0.25" d="M30.9362 16.7881C30.5432 15.372 29.9583 14.0399 29.2087 12.8142C27.9814 12.0652 26.6483 11.48 25.2312 11.0873C27.7937 12.1765 29.8462 14.2282 30.9362 16.7881Z" fill="white"/>
<path opacity="0.25" d="M30.9362 16.7881C30.5432 15.372 29.9583 14.0399 29.2087 12.8142C27.9814 12.0652 26.6483 11.48 25.2312 11.0873C27.7937 12.1765 29.8462 14.2282 30.9362 16.7881Z" fill="white"/>
<path opacity="0.25" d="M30.9362 16.7881C30.5432 15.372 29.9583 14.0399 29.2087 12.8142C27.9814 12.0652 26.6483 11.48 25.2312 11.0873C27.7937 12.1765 29.8462 14.2282 30.9362 16.7881Z" fill="white"/>
<path opacity="0.25" d="M11.0962 25.2126C11.4892 26.6287 12.0741 27.9616 12.8237 29.1873C14.0503 29.9349 15.3834 30.5201 16.8005 30.9135C14.2387 29.8243 12.1855 27.7732 11.0962 25.2126Z" fill="white"/>
<path opacity="0.25" d="M11.0962 25.2126C11.4892 26.6287 12.0741 27.9616 12.8237 29.1873C14.0503 29.9349 15.3834 30.5201 16.8005 30.9135C14.2387 29.8243 12.1855 27.7732 11.0962 25.2126Z" fill="white"/>
<path opacity="0.25" d="M11.0962 25.2126C11.4892 26.6287 12.0741 27.9616 12.8237 29.1873C14.0503 29.9349 15.3834 30.5201 16.8005 30.9135C14.2387 29.8243 12.1855 27.7732 11.0962 25.2126Z" fill="white"/>
<path opacity="0.25" d="M11.0962 25.2126C11.4892 26.6287 12.0741 27.9616 12.8237 29.1873C14.0503 29.9349 15.3834 30.5201 16.8005 30.9135C14.2387 29.8243 12.1855 27.7732 11.0962 25.2126Z" fill="white"/>
<path opacity="0.25" d="M25.2312 30.9127C26.6483 30.5193 27.9821 29.9348 29.2087 29.1865C29.9569 27.9608 30.5432 26.6287 30.9369 25.2119C29.8455 27.7732 27.7937 29.8242 25.2312 30.9127Z" fill="white"/>
<path opacity="0.25" d="M25.2312 30.9127C26.6483 30.5193 27.9821 29.9348 29.2087 29.1865C29.9569 27.9608 30.5432 26.6287 30.9369 25.2119C29.8455 27.7732 27.7937 29.8242 25.2312 30.9127Z" fill="white"/>
<path opacity="0.25" d="M25.2312 30.9127C26.6483 30.5193 27.9821 29.9348 29.2087 29.1865C29.9569 27.9608 30.5432 26.6287 30.9369 25.2119C29.8455 27.7732 27.7937 29.8242 25.2312 30.9127Z" fill="white"/>
<path opacity="0.25" d="M25.2312 30.9127C26.6483 30.5193 27.9821 29.9348 29.2087 29.1865C29.9569 27.9608 30.5432 26.6287 30.9369 25.2119C29.8455 27.7732 27.7937 29.8242 25.2312 30.9127Z" fill="white"/>
<path opacity="0.25" d="M16.8004 11.0867C15.3833 11.4794 14.0502 12.0646 12.8236 12.8136C12.074 14.0393 11.4884 15.3714 11.0947 16.7875C12.1854 14.2276 14.2386 12.1766 16.8004 11.0867Z" fill="white"/>
<path opacity="0.25" d="M16.8004 11.0867C15.3833 11.4794 14.0502 12.0646 12.8236 12.8136C12.074 14.0393 11.4884 15.3714 11.0947 16.7875C12.1854 14.2276 14.2386 12.1766 16.8004 11.0867Z" fill="white"/>
<path opacity="0.25" d="M16.8004 11.0867C15.3833 11.4794 14.0502 12.0646 12.8236 12.8136C12.074 14.0393 11.4884 15.3714 11.0947 16.7875C12.1854 14.2276 14.2386 12.1766 16.8004 11.0867Z" fill="white"/>
<path opacity="0.25" d="M16.8004 11.0867C15.3833 11.4794 14.0502 12.0646 12.8236 12.8136C12.074 14.0393 11.4884 15.3714 11.0947 16.7875C12.1854 14.2276 14.2386 12.1766 16.8004 11.0867Z" fill="white"/>
<defs>
<linearGradient id="paint0_linear_341_2500" x1="21.0155" y1="0" x2="21.0155" y2="42" gradientUnits="userSpaceOnUse">
<stop stop-color="#357679"/>
<stop offset="1" stop-color="#ADD163"/>
</linearGradient>
</defs>
</svg>
