<svg width="250" height="74" viewBox="0 0 250 74" fill="none" xmlns="http://www.w3.org/2000/svg">
<path d="M98.5404 66.349V56.7716H87.2922V66.349H85.4426V45.6128H87.2922V55.1288H98.5404V45.6128H100.359V66.349H98.5404Z" fill="white"/>
<path d="M125.717 62.9014C126.552 64.2844 128.198 64.9745 130.653 64.9745C133.109 64.9745 134.755 64.2983 135.59 62.9461C136.426 61.5939 136.845 59.3308 136.845 56.1569C136.845 52.9831 136.406 50.6614 135.532 49.1918C134.654 47.7194 133.025 46.9818 130.64 46.9818C128.172 46.9818 126.513 47.7781 125.658 49.3678C125.2 50.1836 124.887 51.1196 124.719 52.1729C124.549 53.2262 124.465 54.5281 124.465 56.0815C124.465 59.2442 124.884 61.5156 125.719 62.8986L125.717 62.9014ZM138.756 56.1458C138.756 59.8449 138.175 62.5186 137.01 64.1698C135.845 65.821 133.73 66.6452 130.656 66.6452C127.586 66.6452 125.465 65.8015 124.303 64.1084C123.141 62.4181 122.56 59.7471 122.56 56.0983C122.56 52.4495 123.146 49.7394 124.32 47.9708C125.493 46.1995 127.6 45.3167 130.645 45.3167C133.688 45.3167 135.803 46.1967 136.984 47.9569C138.169 49.717 138.761 52.4467 138.761 56.1458H138.756Z" fill="white"/>
<path d="M160.889 66.349V45.6128H164.351L170.765 63.7535L177.149 45.6128H180.608V66.349H178.759V47.521H178.342L171.838 65.6618H169.662L163.158 47.521H162.738V66.349H160.889Z" fill="white"/>
<path d="M203.58 66.349V45.6128H216.021V47.2835H205.429V54.9807H214.233V56.6207H205.429V64.7062H216.021V66.349H203.58Z" fill="white"/>
<path d="M243.437 46.9258C240.235 46.9258 238.635 48.1495 238.635 50.5969C238.635 52.0274 238.998 52.9941 239.724 53.4914C240.451 53.9887 241.873 54.4441 243.99 54.8632C246.108 55.2795 247.62 55.8578 248.525 56.5926C249.43 57.3302 249.883 58.5623 249.883 60.2917C249.883 62.5213 249.332 64.125 248.229 65.1084C247.125 66.0919 245.508 66.5836 243.381 66.5836C241.828 66.5836 240.032 66.4467 237.981 66.1673L236.905 66.0192L237.115 64.4379C239.839 64.7759 241.948 64.9436 243.44 64.9436C244.932 64.9436 246.066 64.5804 246.84 63.854C247.617 63.1275 248.005 62.0631 248.005 60.6605C248.005 59.258 247.662 58.3025 246.977 57.7968C246.29 57.2911 245.197 56.8972 243.694 56.6206C242.191 56.3412 241.093 56.0897 240.398 55.8578C239.702 55.6315 239.051 55.3019 238.445 54.8744C237.838 54.4469 237.405 53.8993 237.145 53.2344C236.888 52.5694 236.757 51.7285 236.757 50.7143C236.757 47.0934 238.945 45.283 243.32 45.283C244.633 45.283 246.343 45.4227 248.452 45.702L249.436 45.8501L249.285 47.4315C246.541 47.0934 244.591 46.9258 243.437 46.9258Z" fill="white"/>
<path d="M92.1927 27.7625C92.1927 31.6237 94.154 33.5543 98.0822 33.5543C102.008 33.5543 103.972 31.6237 103.972 27.7625V5.71313H110.688V27.6172C110.688 31.674 109.641 34.6523 107.548 36.5493C105.455 38.4464 102.298 39.3963 98.0794 39.3963C93.8607 39.3963 90.7063 38.4464 88.6109 36.5493C86.5183 34.6495 85.4734 31.674 85.4734 27.6172V5.71313H92.1899V27.7625H92.1927Z" fill="white"/>
<path d="M117.603 38.8124V5.71313H128.943L136.926 32.9703H137.415V5.71313H144.131V38.8124H133.081L124.806 11.5524H124.32V38.8124H117.603Z" fill="white"/>
<path d="M151.334 5.71313H158.05V38.8124H151.334V5.71313Z" fill="white"/>
<path d="M175.428 10.9685C171.891 10.9685 170.123 12.1363 170.123 14.4748C170.123 15.5142 170.561 16.3076 171.436 16.8608C172.313 17.4112 174.367 18.2075 177.594 19.244C180.821 20.2833 183.084 21.4596 184.383 22.7727C185.679 24.0886 186.33 26.1086 186.33 28.8326C186.33 32.3054 185.274 34.9345 183.167 36.717C181.058 38.5023 178.3 39.3935 174.892 39.3935C172.361 39.3935 169.262 39.0052 165.594 38.2257L163.842 37.8848L164.524 32.677C168.871 33.261 172.196 33.5515 174.501 33.5515C177.94 33.5515 179.661 32.1238 179.661 29.2685C179.661 28.2292 179.262 27.4189 178.468 26.835C177.672 26.2511 176.09 25.6169 173.721 24.9352C169.955 23.8651 167.304 22.5911 165.764 21.1159C164.222 19.6379 163.451 17.5872 163.451 14.9582C163.451 11.6474 164.457 9.1804 166.468 7.55994C168.48 5.93669 171.24 5.12646 174.744 5.12646C177.144 5.12646 180.195 5.45056 183.894 6.09874L185.646 6.43959L185.109 11.7452C180.533 11.2283 177.303 10.9657 175.423 10.9657L175.428 10.9685Z" fill="white"/>
<path d="M198.623 31.0007C199.579 32.705 201.372 33.5571 204.001 33.5571C206.63 33.5571 208.424 32.705 209.38 31.0007C210.338 29.2964 210.816 26.4411 210.816 22.4346C210.816 18.4282 210.33 15.5142 209.355 13.6981C208.382 11.8793 206.597 10.9713 204.001 10.9713C201.406 10.9713 199.621 11.8793 198.648 13.6981C197.673 15.5142 197.187 18.4282 197.187 22.4346C197.187 26.4411 197.665 29.2964 198.623 31.0007V31.0007ZM214.638 35.2837C212.576 38.0273 209.03 39.3963 204.001 39.3963C198.972 39.3963 195.427 38.0245 193.365 35.2837C191.303 32.5401 190.272 28.2487 190.272 22.4067C190.272 16.5674 191.303 12.2285 193.365 9.38715C195.424 6.54856 198.97 5.12646 204.001 5.12646C209.03 5.12646 212.576 6.54576 214.638 9.38715C216.697 12.2257 217.728 16.5674 217.728 22.4067C217.728 28.2487 216.697 32.5401 214.638 35.2837Z" fill="white"/>
<path d="M223.472 38.8124V5.71313H234.813L242.795 32.9703H243.284V5.71313H250V38.8124H238.95L230.675 11.5524H230.189V38.8124H223.472Z" fill="white"/>
<path d="M29.3702 54.083C24.8928 52.1786 21.3008 48.5879 19.3952 44.1104C18.4339 41.8448 17.8962 39.355 17.8962 36.7391C17.8962 34.1244 18.4326 31.6334 19.3952 29.369C21.3008 24.8891 24.8916 21.3021 29.3702 19.3965C31.6347 18.4326 34.1244 17.8975 36.7403 17.8975C39.355 17.8975 41.846 18.4326 44.1104 19.3965C48.5891 21.3021 52.1774 24.8904 54.0842 29.369C55.048 31.6334 55.5832 34.1244 55.5832 36.7391C55.5832 39.355 55.048 41.8448 54.0842 44.1104C52.1774 48.5866 48.5915 52.1786 44.1104 54.083C41.846 55.0456 39.355 55.582 36.7403 55.582C34.1244 55.582 31.6347 55.0456 29.3702 54.083ZM0 36.7403C0 57.0296 16.4499 73.4807 36.7403 73.4807C57.032 73.4807 73.4807 57.0296 73.4807 36.7403C73.4807 16.4486 57.032 0 36.7403 0C16.4499 0 0 16.4486 0 36.7403Z" fill="url(#paint0_linear_68_1458)"/>
<path opacity="0.25" d="M10.7882 36.7403C9.76924 33.8636 9.18508 30.781 9.18508 27.5552C9.18508 22.3014 10.6841 17.41 13.2351 13.2327C5.30774 18.0714 0 26.7751 0 36.7403C0 46.7055 5.30774 55.4093 13.2351 60.248C10.6841 56.0706 9.18508 51.1793 9.18508 45.9254C9.18508 42.6996 9.76802 39.6183 10.7882 36.7403Z" fill="white"/>
<path opacity="0.25" d="M73.4819 36.7403C73.4819 26.7751 68.1742 18.0714 60.2493 13.2327C62.8003 17.41 64.2968 22.3014 64.2968 27.5552C64.2968 30.781 63.7126 33.8636 62.6937 36.7403C63.7126 39.6183 64.2968 42.6996 64.2968 45.9254C64.2968 51.1793 62.8003 56.0706 60.2493 60.248C68.1742 55.4093 73.4819 46.7055 73.4819 36.7403Z" fill="white"/>
<path opacity="0.25" d="M36.7416 62.6938C33.8636 63.7127 30.7823 64.2956 27.5565 64.2956C22.3026 64.2956 17.4113 62.7978 13.2339 60.2468C18.0726 68.1729 26.7776 73.4807 36.7416 73.4807C46.7055 73.4807 55.4106 68.1729 60.2493 60.2468C56.0719 62.7978 51.1805 64.2956 45.9266 64.2956C42.7008 64.2956 39.6183 63.7139 36.7416 62.6938Z" fill="white"/>
<path opacity="0.25" d="M22.4189 51.0628C17.0597 47.7905 12.9154 42.751 10.7869 36.7402C9.76923 39.6182 9.18628 42.6983 9.18628 45.9253C9.18628 51.1792 10.6828 56.0706 13.2338 60.2479C17.4112 62.7977 22.3026 64.2955 27.5564 64.2955C30.7822 64.2955 33.8648 63.7113 36.7415 62.6949C30.7308 60.5664 25.6913 56.4208 22.4189 51.0628Z" fill="white"/>
<path opacity="0.25" d="M22.4189 51.0628C17.0597 47.7905 12.9154 42.751 10.7869 36.7402C9.76923 39.6182 9.18628 42.6983 9.18628 45.9253C9.18628 51.1792 10.6828 56.0706 13.2338 60.2479C17.4112 62.7977 22.3026 64.2955 27.5564 64.2955C30.7822 64.2955 33.8648 63.7113 36.7415 62.6949C30.7308 60.5664 25.6913 56.4208 22.4189 51.0628Z" fill="white"/>
<path opacity="0.25" d="M62.6948 36.7402C60.5663 42.751 56.4232 47.7881 51.0628 51.0628C47.7905 56.422 42.7509 60.5664 36.7415 62.6936C39.6194 63.7126 42.7007 64.2955 45.9265 64.2955C51.1792 64.2955 56.0705 62.7989 60.2479 60.2479C62.7989 56.0706 64.2967 51.1792 64.2967 45.9253C64.2967 42.6995 63.7138 39.6182 62.6948 36.7402Z" fill="white"/>
<path opacity="0.25" d="M62.6948 36.7402C60.5663 42.751 56.4232 47.7881 51.0628 51.0628C47.7905 56.422 42.7509 60.5664 36.7415 62.6936C39.6194 63.7126 42.7007 64.2955 45.9265 64.2955C51.1792 64.2955 56.0705 62.7989 60.2479 60.2479C62.7989 56.0706 64.2967 51.1792 64.2967 45.9253C64.2967 42.6995 63.7138 39.6182 62.6948 36.7402Z" fill="white"/>
<path opacity="0.25" d="M29.3702 54.083C26.8939 53.3948 24.5621 52.3722 22.4177 51.063C25.6913 56.4222 30.7296 60.5653 36.7403 62.6938C42.7511 60.5653 47.7894 56.4222 51.0617 51.063C48.9173 52.3709 46.588 53.3948 44.1092 54.083C41.846 55.0469 39.355 55.5821 36.7391 55.5821C34.1232 55.5821 31.6359 55.0469 29.3702 54.083Z" fill="white"/>
<path opacity="0.25" d="M29.3702 54.083C26.8939 53.3948 24.5621 52.3722 22.4177 51.063C25.6913 56.4222 30.7296 60.5653 36.7403 62.6938C42.7511 60.5653 47.7894 56.4222 51.0617 51.063C48.9173 52.3709 46.588 53.3948 44.1092 54.083C41.846 55.0469 39.355 55.5821 36.7391 55.5821C34.1232 55.5821 31.6359 55.0469 29.3702 54.083Z" fill="white"/>
<path opacity="0.25" d="M29.3702 54.083C26.8939 53.3948 24.5621 52.3722 22.4177 51.063C25.6913 56.4222 30.7296 60.5653 36.7403 62.6938C42.7511 60.5653 47.7894 56.4222 51.0617 51.063C48.9173 52.3709 46.588 53.3948 44.1092 54.083C41.846 55.0469 39.355 55.5821 36.7391 55.5821C34.1232 55.5821 31.6359 55.0469 29.3702 54.083Z" fill="white"/>
<path opacity="0.25" d="M36.7416 10.787C39.6183 9.76804 42.7008 9.18508 45.9266 9.18508C51.1805 9.18508 56.0719 10.6829 60.2493 13.2339C55.4106 5.30775 46.7055 0 36.7416 0C26.7776 0 18.0726 5.30775 13.2339 13.2339C17.4113 10.6829 22.3026 9.18508 27.5565 9.18508C30.7823 9.18508 33.8636 9.76804 36.7416 10.787Z" fill="white"/>
<path opacity="0.25" d="M36.7415 10.787C33.8635 9.76802 30.7822 9.18506 27.5564 9.18506C22.3026 9.18506 17.4112 10.6828 13.2338 13.2338C10.6828 17.4112 9.18628 22.3026 9.18628 27.5552C9.18628 30.781 9.76922 33.8635 10.7882 36.7403C12.9154 30.7308 17.0597 25.6913 22.4189 22.4189C25.6913 17.0585 30.7308 12.9154 36.7415 10.787Z" fill="white"/>
<path opacity="0.25" d="M36.7415 10.787C33.8635 9.76802 30.7822 9.18506 27.5564 9.18506C22.3026 9.18506 17.4112 10.6828 13.2338 13.2338C10.6828 17.4112 9.18628 22.3026 9.18628 27.5552C9.18628 30.781 9.76922 33.8635 10.7882 36.7403C12.9154 30.7308 17.0597 25.6913 22.4189 22.4189C25.6913 17.0585 30.7308 12.9154 36.7415 10.787Z" fill="white"/>
<path opacity="0.25" d="M60.2479 13.2326C56.0718 10.6816 51.1804 9.18506 45.9265 9.18506C42.6995 9.18506 39.6182 9.76801 36.7415 10.7857C42.7509 12.9142 47.7905 17.0585 51.0628 22.4177C56.422 25.6901 60.5676 30.7296 62.6948 36.7403C63.7125 33.8635 64.2967 30.781 64.2967 27.5552C64.2967 22.3026 62.7989 17.41 60.2479 13.2326Z" fill="white"/>
<path opacity="0.25" d="M60.2479 13.2326C56.0718 10.6816 51.1804 9.18506 45.9265 9.18506C42.6995 9.18506 39.6182 9.76801 36.7415 10.7857C42.7509 12.9142 47.7905 17.0585 51.0628 22.4177C56.422 25.6901 60.5676 30.7296 62.6948 36.7403C63.7125 33.8635 64.2967 30.781 64.2967 27.5552C64.2967 22.3026 62.7989 17.41 60.2479 13.2326Z" fill="white"/>
<path opacity="0.25" d="M44.1104 19.3964C46.5867 20.0834 48.9185 21.1072 51.0642 22.4177C47.7906 17.0572 42.751 12.9141 36.7403 10.7856C30.7321 12.9141 25.6925 17.0572 22.4202 22.4177C24.5646 21.1072 26.8927 20.0834 29.3727 19.3964C31.6359 18.4325 34.1269 17.8986 36.7415 17.8986C39.3575 17.8998 41.8472 18.4338 44.1104 19.3964Z" fill="white"/>
<path opacity="0.25" d="M44.1104 19.3964C46.5867 20.0834 48.9185 21.1072 51.0642 22.4177C47.7906 17.0572 42.751 12.9141 36.7403 10.7856C30.7321 12.9141 25.6925 17.0572 22.4202 22.4177C24.5646 21.1072 26.8927 20.0834 29.3727 19.3964C31.6359 18.4325 34.1269 17.8986 36.7415 17.8986C39.3575 17.8998 41.8472 18.4338 44.1104 19.3964Z" fill="white"/>
<path opacity="0.25" d="M44.1104 19.3964C46.5867 20.0834 48.9185 21.1072 51.0642 22.4177C47.7906 17.0572 42.751 12.9141 36.7403 10.7856C30.7321 12.9141 25.6925 17.0572 22.4202 22.4177C24.5646 21.1072 26.8927 20.0834 29.3727 19.3964C31.6359 18.4325 34.1269 17.8986 36.7415 17.8986C39.3575 17.8998 41.8472 18.4338 44.1104 19.3964Z" fill="white"/>
<path opacity="0.25" d="M19.3988 29.3702C20.0858 26.8927 21.1085 24.5621 22.4189 22.4177C17.0597 25.6913 12.9166 30.7296 10.7881 36.7403C12.9166 42.751 17.0597 47.7906 22.4189 51.0629C21.1097 48.9173 20.0858 46.5879 19.3988 44.1092C18.435 41.846 17.8998 39.3562 17.8998 36.7391C17.8998 34.1244 18.435 31.6346 19.3988 29.3702Z" fill="white"/>
<path opacity="0.25" d="M19.3988 29.3702C20.0858 26.8927 21.1085 24.5621 22.4189 22.4177C17.0597 25.6913 12.9166 30.7296 10.7881 36.7403C12.9166 42.751 17.0597 47.7906 22.4189 51.0629C21.1097 48.9173 20.0858 46.5879 19.3988 44.1092C18.435 41.846 17.8998 39.3562 17.8998 36.7391C17.8998 34.1244 18.435 31.6346 19.3988 29.3702Z" fill="white"/>
<path opacity="0.25" d="M19.3988 29.3702C20.0858 26.8927 21.1085 24.5621 22.4189 22.4177C17.0597 25.6913 12.9166 30.7296 10.7881 36.7403C12.9166 42.751 17.0597 47.7906 22.4189 51.0629C21.1097 48.9173 20.0858 46.5879 19.3988 44.1092C18.435 41.846 17.8998 39.3562 17.8998 36.7391C17.8998 34.1244 18.435 31.6346 19.3988 29.3702Z" fill="white"/>
<path opacity="0.25" d="M51.0642 22.4177C52.3734 24.5621 53.3972 26.8927 54.0842 29.3702C55.0481 31.6346 55.582 34.1244 55.582 36.7403C55.582 39.3562 55.0481 41.846 54.0842 44.1092C53.3972 46.5867 52.3746 48.9185 51.0642 51.0629C56.4234 47.7893 60.5665 42.751 62.695 36.7403C60.5665 30.7296 56.4234 25.6913 51.0642 22.4177Z" fill="white"/>
<path opacity="0.25" d="M51.0642 22.4177C52.3734 24.5621 53.3972 26.8927 54.0842 29.3702C55.0481 31.6346 55.582 34.1244 55.582 36.7403C55.582 39.3562 55.0481 41.846 54.0842 44.1092C53.3972 46.5867 52.3746 48.9185 51.0642 51.0629C56.4234 47.7893 60.5665 42.751 62.695 36.7403C60.5665 30.7296 56.4234 25.6913 51.0642 22.4177Z" fill="white"/>
<path opacity="0.25" d="M51.0642 22.4177C52.3734 24.5621 53.3972 26.8927 54.0842 29.3702C55.0481 31.6346 55.582 34.1244 55.582 36.7403C55.582 39.3562 55.0481 41.846 54.0842 44.1092C53.3972 46.5867 52.3746 48.9185 51.0642 51.0629C56.4234 47.7893 60.5665 42.751 62.695 36.7403C60.5665 30.7296 56.4234 25.6913 51.0642 22.4177Z" fill="white"/>
<path opacity="0.25" d="M54.0844 29.3715C53.3973 26.8939 52.3747 24.5634 51.0643 22.419C48.9187 21.1086 46.5881 20.0847 44.1106 19.3977C48.5905 21.3033 52.1788 24.8928 54.0844 29.3715Z" fill="white"/>
<path opacity="0.25" d="M54.0844 29.3715C53.3973 26.8939 52.3747 24.5634 51.0643 22.419C48.9187 21.1086 46.5881 20.0847 44.1106 19.3977C48.5905 21.3033 52.1788 24.8928 54.0844 29.3715Z" fill="white"/>
<path opacity="0.25" d="M54.0844 29.3715C53.3973 26.8939 52.3747 24.5634 51.0643 22.419C48.9187 21.1086 46.5881 20.0847 44.1106 19.3977C48.5905 21.3033 52.1788 24.8928 54.0844 29.3715Z" fill="white"/>
<path opacity="0.25" d="M54.0844 29.3715C53.3973 26.8939 52.3747 24.5634 51.0643 22.419C48.9187 21.1086 46.5881 20.0847 44.1106 19.3977C48.5905 21.3033 52.1788 24.8928 54.0844 29.3715Z" fill="white"/>
<path opacity="0.25" d="M19.3989 44.1104C20.086 46.5879 21.1086 48.9197 22.419 51.0641C24.5634 52.372 26.894 53.3959 29.3715 54.0841C24.8928 52.1785 21.3033 48.5902 19.3989 44.1104Z" fill="white"/>
<path opacity="0.25" d="M19.3989 44.1104C20.086 46.5879 21.1086 48.9197 22.419 51.0641C24.5634 52.372 26.894 53.3959 29.3715 54.0841C24.8928 52.1785 21.3033 48.5902 19.3989 44.1104Z" fill="white"/>
<path opacity="0.25" d="M19.3989 44.1104C20.086 46.5879 21.1086 48.9197 22.419 51.0641C24.5634 52.372 26.894 53.3959 29.3715 54.0841C24.8928 52.1785 21.3033 48.5902 19.3989 44.1104Z" fill="white"/>
<path opacity="0.25" d="M19.3989 44.1104C20.086 46.5879 21.1086 48.9197 22.419 51.0641C24.5634 52.372 26.894 53.3959 29.3715 54.0841C24.8928 52.1785 21.3033 48.5902 19.3989 44.1104Z" fill="white"/>
<path opacity="0.25" d="M44.1106 54.0829C46.5881 53.3947 48.9199 52.372 51.0643 51.0629C52.3723 48.9185 53.3973 46.5879 54.0856 44.1091C52.1776 48.5902 48.5905 52.1785 44.1106 54.0829Z" fill="white"/>
<path opacity="0.25" d="M44.1106 54.0829C46.5881 53.3947 48.9199 52.372 51.0643 51.0629C52.3723 48.9185 53.3973 46.5879 54.0856 44.1091C52.1776 48.5902 48.5905 52.1785 44.1106 54.0829Z" fill="white"/>
<path opacity="0.25" d="M44.1106 54.0829C46.5881 53.3947 48.9199 52.372 51.0643 51.0629C52.3723 48.9185 53.3973 46.5879 54.0856 44.1091C52.1776 48.5902 48.5905 52.1785 44.1106 54.0829Z" fill="white"/>
<path opacity="0.25" d="M44.1106 54.0829C46.5881 53.3947 48.9199 52.372 51.0643 51.0629C52.3723 48.9185 53.3973 46.5879 54.0856 44.1091C52.1776 48.5902 48.5905 52.1785 44.1106 54.0829Z" fill="white"/>
<path opacity="0.25" d="M29.3715 19.3965C26.894 20.0835 24.5634 21.1074 22.419 22.4178C21.1086 24.5622 20.0848 26.8927 19.3965 29.3703C21.3033 24.8916 24.8928 21.3033 29.3715 19.3965Z" fill="white"/>
<path opacity="0.25" d="M29.3715 19.3965C26.894 20.0835 24.5634 21.1074 22.419 22.4178C21.1086 24.5622 20.0848 26.8927 19.3965 29.3703C21.3033 24.8916 24.8928 21.3033 29.3715 19.3965Z" fill="white"/>
<path opacity="0.25" d="M29.3715 19.3965C26.894 20.0835 24.5634 21.1074 22.419 22.4178C21.1086 24.5622 20.0848 26.8927 19.3965 29.3703C21.3033 24.8916 24.8928 21.3033 29.3715 19.3965Z" fill="white"/>
<path opacity="0.25" d="M29.3715 19.3965C26.894 20.0835 24.5634 21.1074 22.419 22.4178C21.1086 24.5622 20.0848 26.8927 19.3965 29.3703C21.3033 24.8916 24.8928 21.3033 29.3715 19.3965Z" fill="white"/>
<defs>
<linearGradient id="paint0_linear_68_1458" x1="36.7403" y1="0" x2="36.7403" y2="73.4807" gradientUnits="userSpaceOnUse">
<stop stop-color="#357679"/>
<stop offset="1" stop-color="#ADD163"/>
</linearGradient>
</defs>
</svg>
