<svg width="180" height="53" viewBox="0 0 180 53" fill="none" xmlns="http://www.w3.org/2000/svg">
	<path d="M70.9491 47.7714V40.8756H62.8504V47.7714H61.5187V32.8413H62.8504V39.6928H70.9491V32.8413H72.2586V47.7714H70.9491Z" fill="#A1A0A0" />
	<path d="M90.5159 45.2891C91.1174 46.2848 92.3022 46.7817 94.0704 46.7817C95.8386 46.7817 97.0234 46.2949 97.6249 45.3213C98.2264 44.3476 98.5281 42.7182 98.5281 40.4331C98.5281 38.1479 98.2123 36.4762 97.5827 35.4181C96.951 34.358 95.7783 33.827 94.0603 33.827C92.2841 33.827 91.0892 34.4003 90.4737 35.5449C90.1438 36.1323 89.9185 36.8061 89.7978 37.5645C89.6751 38.3229 89.6147 39.2603 89.6147 40.3788C89.6147 42.6559 89.9164 44.2913 90.5179 45.2871L90.5159 45.2891ZM99.9041 40.425C99.9041 43.0884 99.4856 45.0135 98.6468 46.2023C97.808 47.3912 96.2852 47.9846 94.0724 47.9846C91.8617 47.9846 90.3349 47.3771 89.498 46.1581C88.6612 44.9411 88.2428 43.018 88.2428 40.3908C88.2428 37.7637 88.6652 35.8124 89.5101 34.5391C90.355 33.2637 91.8717 32.6281 94.0644 32.6281C96.255 32.6281 97.7778 33.2617 98.6287 34.529C99.4816 35.7963 99.9081 37.7617 99.9081 40.425H99.9041Z" fill="#A1A0A0" />
	<path d="M115.84 47.7714V32.8413H118.332L122.951 45.9026L127.547 32.8413H130.038V47.7714H128.706V34.2152H128.406L123.723 47.2766H122.156L117.473 34.2152H117.172V47.7714H115.84Z" fill="#A1A0A0" />
	<path d="M146.577 47.7714V32.8413H155.535V34.0442H147.909V39.5862H154.248V40.767H147.909V46.5886H155.535V47.7714H146.577Z" fill="#A1A0A0" />
	<path d="M175.275 33.7867C172.97 33.7867 171.817 34.6678 171.817 36.4299C171.817 37.4599 172.078 38.1559 172.601 38.514C173.124 38.872 174.148 39.1999 175.673 39.5017C177.198 39.8014 178.286 40.2178 178.938 40.7468C179.59 41.2779 179.916 42.165 179.916 43.4102C179.916 45.0155 179.519 46.1701 178.725 46.8782C177.93 47.5863 176.765 47.9403 175.235 47.9403C174.116 47.9403 172.823 47.8418 171.346 47.6406L170.572 47.534L170.723 46.3954C172.684 46.6388 174.203 46.7595 175.277 46.7595C176.351 46.7595 177.168 46.498 177.725 45.975C178.284 45.452 178.564 44.6856 178.564 43.6757C178.564 42.6659 178.316 41.9779 177.824 41.6138C177.329 41.2497 176.542 40.9661 175.46 40.767C174.378 40.5658 173.587 40.3848 173.086 40.2178C172.585 40.0549 172.117 39.8175 171.68 39.5097C171.244 39.2019 170.932 38.8077 170.745 38.3289C170.56 37.8501 170.465 37.2446 170.465 36.5144C170.465 33.9074 172.04 32.6039 175.19 32.6039C176.136 32.6039 177.367 32.7045 178.886 32.9056L179.594 33.0122L179.485 34.1508C177.51 33.9074 176.106 33.7867 175.275 33.7867Z" fill="#A1A0A0" />
	<path d="M66.3787 19.9892C66.3787 22.7692 67.7908 24.1593 70.6191 24.1593C73.4454 24.1593 74.8596 22.7692 74.8596 19.9892V4.11365H79.6955V19.8846C79.6955 22.8054 78.9411 24.9498 77.4344 26.3157C75.9277 27.6816 73.6546 28.3655 70.6171 28.3655C67.5796 28.3655 65.3085 27.6816 63.7998 26.3157C62.2931 24.9478 61.5408 22.8054 61.5408 19.8846V4.11365H66.3767V19.9892H66.3787Z" fill="#242424" />
	<path d="M84.6742 27.9451V4.11365H92.8393L98.5864 23.7388H98.9385V4.11365H103.774V27.9451H95.8185L89.8601 8.31789H89.5101V27.9451H84.6742Z" fill="#242424" />
	<path d="M108.96 4.11365H113.796V27.9451H108.96V4.11365Z" fill="#242424" />
	<path d="M126.308 7.89742C123.762 7.89742 122.488 8.73827 122.488 10.422C122.488 11.1703 122.804 11.7416 123.434 12.1399C124.065 12.5362 125.544 13.1095 127.867 13.8558C130.191 14.6041 131.82 15.451 132.756 16.3964C133.689 17.3439 134.158 18.7983 134.158 20.7596C134.158 23.26 133.397 25.1529 131.881 26.4363C130.362 27.7218 128.376 28.3635 125.922 28.3635C124.1 28.3635 121.869 28.0838 119.228 27.5226L117.966 27.2772L118.457 23.5276C121.587 23.948 123.981 24.1572 125.641 24.1572C128.117 24.1572 129.356 23.1293 129.356 21.0734C129.356 20.3251 129.068 19.7417 128.497 19.3213C127.924 18.9009 126.785 18.4442 125.079 17.9534C122.368 17.183 120.459 16.2657 119.35 15.2036C118.24 14.1394 117.685 12.6629 117.685 10.77C117.685 8.38624 118.409 6.61 119.857 5.44327C121.306 4.27453 123.293 3.69116 125.816 3.69116C127.544 3.69116 129.74 3.92451 132.404 4.3912L133.665 4.63661L133.279 8.45665C129.984 8.0845 127.658 7.89541 126.304 7.89541L126.308 7.89742Z" fill="#242424" />
	<path d="M143.009 22.3206C143.697 23.5477 144.988 24.1612 146.881 24.1612C148.774 24.1612 150.065 23.5477 150.753 22.3206C151.443 21.0935 151.787 19.0377 151.787 16.153C151.787 13.2684 151.437 11.1703 150.735 9.86276C150.035 8.5532 148.75 7.89943 146.881 7.89943C145.012 7.89943 143.727 8.5532 143.027 9.86276C142.325 11.1703 141.975 13.2684 141.975 16.153C141.975 19.0377 142.319 21.0935 143.009 22.3206ZM154.539 25.4044C153.055 27.3798 150.502 28.3655 146.881 28.3655C143.26 28.3655 140.707 27.3778 139.223 25.4044C137.738 23.429 136.996 20.3392 136.996 16.1329C136.996 11.9287 137.738 8.80465 139.223 6.75885C140.705 4.71507 143.258 3.69116 146.881 3.69116C150.502 3.69116 153.055 4.71306 154.539 6.75885C156.022 8.80264 156.764 11.9287 156.764 16.1329C156.764 20.3392 156.022 23.429 154.539 25.4044Z" fill="#242424" />
	<path d="M160.9 27.9451V4.11365H169.065L174.812 23.7388H175.164V4.11365H180V27.9451H172.044L166.086 8.31789H165.736V27.9451H160.9Z" fill="#242424" />
	<path d="M21.1466 38.9398C17.9228 37.5686 15.3366 34.9833 13.9646 31.7595C13.2724 30.1283 12.8853 28.3356 12.8853 26.4521C12.8853 24.5696 13.2715 22.7761 13.9646 21.1457C15.3366 17.9202 17.9219 15.3375 21.1466 13.9655C22.777 13.2715 24.5696 12.8862 26.453 12.8862C28.3356 12.8862 30.1291 13.2715 31.7595 13.9655C34.9841 15.3375 37.5677 17.9211 38.9406 21.1457C39.6346 22.7761 40.0199 24.5696 40.0199 26.4521C40.0199 28.3356 39.6346 30.1283 38.9406 31.7595C37.5677 34.9824 34.9859 37.5686 31.7595 38.9398C30.1291 39.6328 28.3356 40.019 26.453 40.019C24.5696 40.019 22.777 39.6328 21.1466 38.9398ZM0 26.453C0 41.0613 11.8439 52.9061 26.453 52.9061C41.063 52.9061 52.9061 41.0613 52.9061 26.453C52.9061 11.843 41.063 0 26.453 0C11.8439 0 0 11.843 0 26.453Z" fill="url(#paint0_linear_38_1289)" />
	<path opacity="0.25" d="M7.76748 26.4531C7.03385 24.3818 6.61326 22.1624 6.61326 19.8398C6.61326 16.0571 7.69254 12.5353 9.52926 9.52759C3.82157 13.0115 0 19.2782 0 26.4531C0 33.628 3.82157 39.8948 9.52926 43.3786C7.69254 40.3709 6.61326 36.8491 6.61326 33.0664C6.61326 30.7438 7.03297 28.5253 7.76748 26.4531Z" fill="white" />
	<path opacity="0.25" d="M52.907 26.4531C52.907 19.2782 49.0854 13.0115 43.3795 9.52759C45.2162 12.5353 46.2938 16.0571 46.2938 19.8398C46.2938 22.1624 45.8731 24.3818 45.1395 26.4531C45.8731 28.5253 46.2938 30.7438 46.2938 33.0664C46.2938 36.8491 45.2162 40.3709 43.3795 43.3786C49.0854 39.8948 52.907 33.628 52.907 26.4531Z" fill="white" />
	<path opacity="0.25" d="M26.454 45.1395C24.3818 45.8731 22.1633 46.2928 19.8407 46.2928C16.0579 46.2928 12.5362 45.2144 9.52844 43.3777C13.0123 49.0845 19.2799 52.9061 26.454 52.9061C33.628 52.9061 39.8956 49.0845 43.3795 43.3777C40.3718 45.2144 36.85 46.2928 33.0672 46.2928C30.7446 46.2928 28.5252 45.874 26.454 45.1395Z" fill="white" />
	<path opacity="0.25" d="M16.1416 36.7653C12.283 34.4092 9.29912 30.7807 7.76661 26.453C7.03386 28.5252 6.61414 30.7428 6.61414 33.0663C6.61414 36.849 7.69166 40.3708 9.52839 43.3785C12.5361 45.2144 16.0579 46.2928 19.8407 46.2928C22.1632 46.2928 24.3826 45.8722 26.4539 45.1403C22.1262 43.6078 18.4977 40.623 16.1416 36.7653Z" fill="white" />
	<path opacity="0.25" d="M16.1416 36.7653C12.283 34.4092 9.29912 30.7807 7.76661 26.453C7.03386 28.5252 6.61414 30.7428 6.61414 33.0663C6.61414 36.849 7.69166 40.3708 9.52839 43.3785C12.5361 45.2144 16.0579 46.2928 19.8407 46.2928C22.1632 46.2928 24.3826 45.8722 26.4539 45.1403C22.1262 43.6078 18.4977 40.623 16.1416 36.7653Z" fill="white" />
	<path opacity="0.25" d="M45.1403 26.453C43.6078 30.7807 40.6247 34.4074 36.7653 36.7653C34.4092 40.6239 30.7807 43.6078 26.4539 45.1394C28.526 45.8731 30.7445 46.2928 33.0671 46.2928C36.849 46.2928 40.3708 45.2153 43.3785 43.3785C45.2152 40.3708 46.2936 36.849 46.2936 33.0663C46.2936 30.7437 45.8739 28.5252 45.1403 26.453Z" fill="white" />
	<path opacity="0.25" d="M45.1403 26.453C43.6078 30.7807 40.6247 34.4074 36.7653 36.7653C34.4092 40.6239 30.7807 43.6078 26.4539 45.1394C28.526 45.8731 30.7445 46.2928 33.0671 46.2928C36.849 46.2928 40.3708 45.2153 43.3785 43.3785C45.2152 40.3708 46.2936 36.849 46.2936 33.0663C46.2936 30.7437 45.8739 28.5252 45.1403 26.453Z" fill="white" />
	<path opacity="0.25" d="M21.1465 38.9397C19.3636 38.4441 17.6847 37.7079 16.1407 36.7653C18.4977 40.6239 22.1253 43.6069 26.453 45.1394C30.7807 43.6069 34.4083 40.6239 36.7644 36.7653C35.2204 37.707 33.5433 38.4441 31.7586 38.9397C30.1291 39.6337 28.3356 40.019 26.4521 40.019C24.5687 40.019 22.7778 39.6337 21.1465 38.9397Z" fill="white" />
	<path opacity="0.25" d="M21.1465 38.9397C19.3636 38.4441 17.6847 37.7079 16.1407 36.7653C18.4977 40.6239 22.1253 43.6069 26.453 45.1394C30.7807 43.6069 34.4083 40.6239 36.7644 36.7653C35.2204 37.707 33.5433 38.4441 31.7586 38.9397C30.1291 39.6337 28.3356 40.019 26.4521 40.019C24.5687 40.019 22.7778 39.6337 21.1465 38.9397Z" fill="white" />
	<path opacity="0.25" d="M21.1465 38.9397C19.3636 38.4441 17.6847 37.7079 16.1407 36.7653C18.4977 40.6239 22.1253 43.6069 26.453 45.1394C30.7807 43.6069 34.4083 40.6239 36.7644 36.7653C35.2204 37.707 33.5433 38.4441 31.7586 38.9397C30.1291 39.6337 28.3356 40.019 26.4521 40.019C24.5687 40.019 22.7778 39.6337 21.1465 38.9397Z" fill="white" />
	<path opacity="0.25" d="M26.454 7.76662C28.5252 7.03299 30.7446 6.61326 33.0672 6.61326C36.85 6.61326 40.3718 7.69166 43.3795 9.52838C39.8956 3.82158 33.628 0 26.454 0C19.2799 0 13.0123 3.82158 9.52844 9.52838C12.5362 7.69166 16.0579 6.61326 19.8407 6.61326C22.1633 6.61326 24.3818 7.03299 26.454 7.76662Z" fill="white" />
	<path opacity="0.25" d="M26.4539 7.76665C24.3818 7.03302 22.1632 6.61328 19.8407 6.61328C16.0579 6.61328 12.5361 7.69168 9.52839 9.52841C7.69166 12.5361 6.61414 16.0579 6.61414 19.8398C6.61414 22.1624 7.03386 24.3818 7.76749 26.4531C9.29912 22.1262 12.283 18.4977 16.1416 16.1417C18.4977 12.2822 22.1262 9.29916 26.4539 7.76665Z" fill="white" />
	<path opacity="0.25" d="M26.4539 7.76665C24.3818 7.03302 22.1632 6.61328 19.8407 6.61328C16.0579 6.61328 12.5361 7.69168 9.52839 9.52841C7.69166 12.5361 6.61414 16.0579 6.61414 19.8398C6.61414 22.1624 7.03386 24.3818 7.76749 26.4531C9.29912 22.1262 12.283 18.4977 16.1416 16.1417C18.4977 12.2822 22.1262 9.29916 26.4539 7.76665Z" fill="white" />
	<path opacity="0.25" d="M43.3785 9.52754C40.3717 7.69082 36.8499 6.61328 33.0671 6.61328C30.7437 6.61328 28.5251 7.03301 26.4539 7.76576C30.7807 9.29827 34.4092 12.2822 36.7653 16.1408C40.6239 18.4969 43.6087 22.1253 45.1403 26.4531C45.873 24.3818 46.2936 22.1624 46.2936 19.8398C46.2936 16.0579 45.2152 12.5353 43.3785 9.52754Z" fill="white" />
	<path opacity="0.25" d="M43.3785 9.52754C40.3717 7.69082 36.8499 6.61328 33.0671 6.61328C30.7437 6.61328 28.5251 7.03301 26.4539 7.76576C30.7807 9.29827 34.4092 12.2822 36.7653 16.1408C40.6239 18.4969 43.6087 22.1253 45.1403 26.4531C45.873 24.3818 46.2936 22.1624 46.2936 19.8398C46.2936 16.0579 45.2152 12.5353 43.3785 9.52754Z" fill="white" />
	<path opacity="0.25" d="M31.7594 13.9655C33.5424 14.4601 35.2213 15.1973 36.7661 16.1408C34.4092 12.2813 30.7807 9.29826 26.453 7.76575C22.127 9.29826 18.4985 12.2813 16.1425 16.1408C17.6864 15.1973 19.3627 14.4601 21.1483 13.9655C22.7778 13.2715 24.5713 12.8871 26.4538 12.8871C28.3373 12.8879 30.1299 13.2724 31.7594 13.9655Z" fill="white" />
	<path opacity="0.25" d="M31.7594 13.9655C33.5424 14.4601 35.2213 15.1973 36.7661 16.1408C34.4092 12.2813 30.7807 9.29826 26.453 7.76575C22.127 9.29826 18.4985 12.2813 16.1425 16.1408C17.6864 15.1973 19.3627 14.4601 21.1483 13.9655C22.7778 13.2715 24.5713 12.8871 26.4538 12.8871C28.3373 12.8879 30.1299 13.2724 31.7594 13.9655Z" fill="white" />
	<path opacity="0.25" d="M31.7594 13.9655C33.5424 14.4601 35.2213 15.1973 36.7661 16.1408C34.4092 12.2813 30.7807 9.29826 26.453 7.76575C22.127 9.29826 18.4985 12.2813 16.1425 16.1408C17.6864 15.1973 19.3627 14.4601 21.1483 13.9655C22.7778 13.2715 24.5713 12.8871 26.4538 12.8871C28.3373 12.8879 30.1299 13.2724 31.7594 13.9655Z" fill="white" />
	<path opacity="0.25" d="M13.9672 21.1467C14.4618 19.3629 15.1981 17.6848 16.1416 16.1409C12.283 18.4978 9.29997 22.1254 7.76746 26.4531C9.29997 30.7808 12.283 34.4093 16.1416 36.7654C15.199 35.2205 14.4618 33.5434 13.9672 31.7587C13.2732 30.1292 12.8879 28.3366 12.8879 26.4523C12.8879 24.5697 13.2732 22.7771 13.9672 21.1467Z" fill="white" />
	<path opacity="0.25" d="M13.9672 21.1467C14.4618 19.3629 15.1981 17.6848 16.1416 16.1409C12.283 18.4978 9.29997 22.1254 7.76746 26.4531C9.29997 30.7808 12.283 34.4093 16.1416 36.7654C15.199 35.2205 14.4618 33.5434 13.9672 31.7587C13.2732 30.1292 12.8879 28.3366 12.8879 26.4523C12.8879 24.5697 13.2732 22.7771 13.9672 21.1467Z" fill="white" />
	<path opacity="0.25" d="M13.9672 21.1467C14.4618 19.3629 15.1981 17.6848 16.1416 16.1409C12.283 18.4978 9.29997 22.1254 7.76746 26.4531C9.29997 30.7808 12.283 34.4093 16.1416 36.7654C15.199 35.2205 14.4618 33.5434 13.9672 31.7587C13.2732 30.1292 12.8879 28.3366 12.8879 26.4523C12.8879 24.5697 13.2732 22.7771 13.9672 21.1467Z" fill="white" />
	<path opacity="0.25" d="M36.7662 16.1409C37.7088 17.6848 38.446 19.3629 38.9407 21.1467C39.6346 22.7771 40.0191 24.5697 40.0191 26.4531C40.0191 28.3366 39.6346 30.1292 38.9407 31.7587C38.446 33.5425 37.7097 35.2214 36.7662 36.7654C40.6249 34.4084 43.6079 30.7808 45.1404 26.4531C43.6079 22.1254 40.6249 18.4978 36.7662 16.1409Z" fill="white" />
	<path opacity="0.25" d="M36.7662 16.1409C37.7088 17.6848 38.446 19.3629 38.9407 21.1467C39.6346 22.7771 40.0191 24.5697 40.0191 26.4531C40.0191 28.3366 39.6346 30.1292 38.9407 31.7587C38.446 33.5425 37.7097 35.2214 36.7662 36.7654C40.6249 34.4084 43.6079 30.7808 45.1404 26.4531C43.6079 22.1254 40.6249 18.4978 36.7662 16.1409Z" fill="white" />
	<path opacity="0.25" d="M36.7662 16.1409C37.7088 17.6848 38.446 19.3629 38.9407 21.1467C39.6346 22.7771 40.0191 24.5697 40.0191 26.4531C40.0191 28.3366 39.6346 30.1292 38.9407 31.7587C38.446 33.5425 37.7097 35.2214 36.7662 36.7654C40.6249 34.4084 43.6079 30.7808 45.1404 26.4531C43.6079 22.1254 40.6249 18.4978 36.7662 16.1409Z" fill="white" />
	<path opacity="0.25" d="M38.9406 21.1474C38.446 19.3636 37.7097 17.6856 36.7662 16.1416C35.2213 15.1981 33.5433 14.461 31.7595 13.9663C34.985 15.3383 37.5686 17.9228 38.9406 21.1474Z" fill="white" />
	<path opacity="0.25" d="M38.9406 21.1474C38.446 19.3636 37.7097 17.6856 36.7662 16.1416C35.2213 15.1981 33.5433 14.461 31.7595 13.9663C34.985 15.3383 37.5686 17.9228 38.9406 21.1474Z" fill="white" />
	<path opacity="0.25" d="M38.9406 21.1474C38.446 19.3636 37.7097 17.6856 36.7662 16.1416C35.2213 15.1981 33.5433 14.461 31.7595 13.9663C34.985 15.3383 37.5686 17.9228 38.9406 21.1474Z" fill="white" />
	<path opacity="0.25" d="M38.9406 21.1474C38.446 19.3636 37.7097 17.6856 36.7662 16.1416C35.2213 15.1981 33.5433 14.461 31.7595 13.9663C34.985 15.3383 37.5686 17.9228 38.9406 21.1474Z" fill="white" />
	<path opacity="0.25" d="M13.9672 31.7595C14.4618 33.5433 15.1981 35.2222 16.1416 36.7662C17.6856 37.7079 19.3636 38.4451 21.1474 38.9406C17.9228 37.5686 15.3383 34.985 13.9672 31.7595Z" fill="white" />
	<path opacity="0.25" d="M13.9672 31.7595C14.4618 33.5433 15.1981 35.2222 16.1416 36.7662C17.6856 37.7079 19.3636 38.4451 21.1474 38.9406C17.9228 37.5686 15.3383 34.985 13.9672 31.7595Z" fill="white" />
	<path opacity="0.25" d="M13.9672 31.7595C14.4618 33.5433 15.1981 35.2222 16.1416 36.7662C17.6856 37.7079 19.3636 38.4451 21.1474 38.9406C17.9228 37.5686 15.3383 34.985 13.9672 31.7595Z" fill="white" />
	<path opacity="0.25" d="M13.9672 31.7595C14.4618 33.5433 15.1981 35.2222 16.1416 36.7662C17.6856 37.7079 19.3636 38.4451 21.1474 38.9406C17.9228 37.5686 15.3383 34.985 13.9672 31.7595Z" fill="white" />
	<path opacity="0.25" d="M31.7595 38.9398C33.5433 38.4442 35.2222 37.708 36.7662 36.7654C37.7079 35.2214 38.446 33.5434 38.9415 31.7587C37.5677 34.9851 34.985 37.5686 31.7595 38.9398Z" fill="white" />
	<path opacity="0.25" d="M31.7595 38.9398C33.5433 38.4442 35.2222 37.708 36.7662 36.7654C37.7079 35.2214 38.446 33.5434 38.9415 31.7587C37.5677 34.9851 34.985 37.5686 31.7595 38.9398Z" fill="white" />
	<path opacity="0.25" d="M31.7595 38.9398C33.5433 38.4442 35.2222 37.708 36.7662 36.7654C37.7079 35.2214 38.446 33.5434 38.9415 31.7587C37.5677 34.9851 34.985 37.5686 31.7595 38.9398Z" fill="white" />
	<path opacity="0.25" d="M31.7595 38.9398C33.5433 38.4442 35.2222 37.708 36.7662 36.7654C37.7079 35.2214 38.446 33.5434 38.9415 31.7587C37.5677 34.9851 34.985 37.5686 31.7595 38.9398Z" fill="white" />
	<path opacity="0.25" d="M21.1475 13.9655C19.3636 14.4601 17.6856 15.1973 16.1417 16.1408C15.1982 17.6848 14.461 19.3628 13.9655 21.1466C15.3384 17.922 17.9228 15.3384 21.1475 13.9655Z" fill="white" />
	<path opacity="0.25" d="M21.1475 13.9655C19.3636 14.4601 17.6856 15.1973 16.1417 16.1408C15.1982 17.6848 14.461 19.3628 13.9655 21.1466C15.3384 17.922 17.9228 15.3384 21.1475 13.9655Z" fill="white" />
	<path opacity="0.25" d="M21.1475 13.9655C19.3636 14.4601 17.6856 15.1973 16.1417 16.1408C15.1982 17.6848 14.461 19.3628 13.9655 21.1466C15.3384 17.922 17.9228 15.3384 21.1475 13.9655Z" fill="white" />
	<path opacity="0.25" d="M21.1475 13.9655C19.3636 14.4601 17.6856 15.1973 16.1417 16.1408C15.1982 17.6848 14.461 19.3628 13.9655 21.1466C15.3384 17.922 17.9228 15.3384 21.1475 13.9655Z" fill="white" />
	<defs>
		<linearGradient id="paint0_linear_38_1289" x1="26.453" y1="0" x2="26.453" y2="52.9061" gradientUnits="userSpaceOnUse">
			<stop stop-color="#357679" />
			<stop offset="1" stop-color="#ADD163" />
		</linearGradient>
	</defs>
</svg>
