<svg width="136" height="199" viewBox="0 0 136 199" fill="none" xmlns="http://www.w3.org/2000/svg">
<path d="M130.906 183.127H123.989L123.991 19.7142C123.991 15.8746 120.917 12.8012 117.074 12.8012H104.265V4.6075C104.265 2.04654 102.215 0 99.6543 0H35.0975C32.5349 0 30.4872 2.04841 30.4872 4.6075V12.8012H17.6783C13.8363 12.8012 10.761 15.8729 10.761 19.7142V183.383H3.84372C1.53853 183.383 0.00178696 185.176 0.00178696 187.222L0 195.16C0 197.464 1.79411 199 3.84194 199H131.162C133.468 199 135.004 197.207 135.004 195.16V187.224C135.006 184.919 133.213 183.127 130.906 183.127ZM53.2843 52.5549H39.1941C37.1444 52.5549 35.3521 50.7619 35.3521 48.7153V35.1461C35.3521 33.0977 37.1462 31.3065 39.1941 31.3065H53.2843C55.334 31.3065 57.1262 33.0995 57.1262 35.1461V48.7153C57.128 50.7637 55.5895 52.5549 53.2843 52.5549ZM57.128 74.0604V87.6296C57.128 89.678 55.3339 91.4692 53.2861 91.4692L39.194 91.471C37.1444 91.471 35.3521 89.678 35.3521 87.6314V74.0622C35.3521 72.0138 37.1462 70.2226 39.194 70.2226H53.2843C55.5895 70.2208 57.128 72.012 57.128 74.0604ZM35.3523 126.545V112.976C35.3523 110.927 37.1464 109.136 39.1942 109.136H53.2845C55.3342 109.136 57.1264 110.929 57.1264 112.976V126.545C57.1264 128.594 55.3323 130.385 53.2845 130.385L39.1942 130.387C37.1464 130.387 35.3523 128.849 35.3523 126.545ZM85.5632 183.126H49.1845V154.45C49.1845 150.866 52.0026 148.05 55.589 148.05H78.9017C82.4881 148.05 85.3061 150.866 85.3061 154.45V183.126H85.5632ZM99.3959 126.545C99.3959 128.594 97.6018 130.385 95.554 130.385H81.4637C79.4141 130.385 77.6218 128.592 77.6218 126.545V112.976C77.6218 110.927 79.4159 109.136 81.4637 109.136H95.554C97.6036 109.136 99.3959 110.929 99.3959 112.976V126.545ZM99.3959 87.6292C99.3959 89.6776 97.6018 91.4688 95.554 91.4688H81.4637C79.4141 91.4688 77.6218 89.6758 77.6218 87.6292V74.0599C77.6218 72.0115 79.4159 70.2203 81.4637 70.2203H95.554C97.6036 70.2203 99.3959 72.0134 99.3959 74.0599V87.6292ZM99.3959 48.7151C99.3959 50.7635 97.6018 52.5547 95.554 52.5547H81.4637C79.4141 52.5547 77.6218 50.7616 77.6218 48.7151V35.1458C77.6218 33.0974 79.4159 31.3062 81.4637 31.3062L95.554 31.3044C97.6036 31.3044 99.3959 33.0975 99.3959 35.144V48.7151Z" fill="#242424"/>
</svg>
