<svg width="20" height="20" viewBox="0 0 20 20" fill="none" xmlns="http://www.w3.org/2000/svg">
<path d="M18.9984 9.50466L16.8218 8.8031C15.4296 8.34373 14.614 7.21716 14.2312 5.80154L13.2734 1.13591C13.2484 1.04373 13.1874 0.920288 12.9999 0.920288C12.8421 0.920288 12.7515 1.04373 12.7265 1.13591L11.7687 5.8031C11.3843 7.21873 10.5702 8.34529 9.17805 8.80466L7.00148 9.50622C6.69367 9.60623 6.68898 10.0406 6.99523 10.1453L9.18742 10.9C10.5749 11.3609 11.3843 12.4859 11.7687 13.8953L12.728 18.5093C12.753 18.6015 12.8046 18.7672 13.0015 18.7672C13.2093 18.7672 13.2499 18.6015 13.2749 18.5093L14.2343 13.8953C14.6187 12.4843 15.428 11.3594 16.8155 10.9L19.0077 10.1453C19.3109 10.039 19.3062 9.60466 18.9984 9.50466Z" fill="#FDD835"/>
<path d="M19.2045 9.70001C19.1701 9.61407 19.1029 9.53907 18.9982 9.5047L16.8217 8.80314C15.4295 8.34376 14.6139 7.2172 14.2311 5.80157L13.2732 1.13595C13.2592 1.08282 13.2092 0.98595 13.1514 0.957825L13.4607 5.64064C13.6904 7.77814 13.8873 8.78439 15.5936 9.07814C17.0592 9.33126 18.7545 9.62189 19.2045 9.70001Z" fill="#FFEE58"/>
<path d="M19.2093 9.94373L15.4343 10.8094C14.1046 11.1469 13.3718 11.9172 13.3718 13.9328L13.0015 18.7672C13.128 18.7547 13.2312 18.6859 13.2749 18.5093L14.2343 13.8953C14.6187 12.4844 15.428 11.3594 16.8155 10.9L19.0077 10.1453C19.1108 10.1078 19.1765 10.0312 19.2093 9.94373Z" fill="#F4B400"/>
<path d="M6.53273 13.5641C5.23116 13.1344 5.11241 12.65 4.89366 11.8328L4.34835 9.92034C4.31554 9.7969 3.99366 9.7969 3.95929 9.92034L3.58898 11.6875C3.36866 12.5016 2.89991 13.1485 2.09991 13.4125L0.824913 13.9656C0.64835 14.0235 0.645225 14.2735 0.821788 14.3328L2.10616 14.7875C2.90304 15.0516 3.36866 15.6985 3.59054 16.5094L3.96085 18.2C3.99523 18.3235 4.31554 18.3235 4.34835 18.2L4.78273 16.5172C5.00304 15.7016 5.34054 15.0531 6.42335 14.7875L7.6296 14.3328C7.80616 14.2719 7.8046 14.0219 7.62648 13.9641L6.53273 13.5641Z" fill="#FDD835"/>
<path d="M4.45176 11.8047C4.58457 13.0328 4.65176 13.3734 5.64707 13.6281L7.72051 14.0328C7.69863 14.0031 7.66738 13.9781 7.6252 13.9656L6.53145 13.5641C5.38926 13.1734 5.07363 12.6766 4.85957 11.6828C4.64551 10.6891 4.41738 10.0406 4.41738 10.0406C4.3377 9.82656 4.22363 9.8375 4.22363 9.8375L4.45176 11.8047Z" fill="#FFEE58"/>
<path d="M4.48906 16.0922C4.48906 14.9344 5.12188 14.3609 6.12813 14.3609L7.69375 14.2969C7.69375 14.2969 7.60313 14.4172 7.44531 14.4547L6.42344 14.7875C5.55625 15.1359 5.16094 15.3109 4.89219 16.4969C4.89219 16.4969 4.54531 17.8766 4.47969 18.0219C4.38906 18.225 4.28125 18.2672 4.28125 18.2672L4.48906 16.0922Z" fill="#F4B400"/>
<path d="M9.33419 4.3969C9.42169 4.36721 9.41856 4.24221 9.3295 4.21721L8.12325 3.89221C7.99918 3.85857 7.88592 3.79341 7.79448 3.70306C7.70303 3.61271 7.63651 3.50024 7.60137 3.37659L7.12637 1.41565C7.10294 1.32034 6.967 1.32034 6.94356 1.41721L6.49669 3.37034C6.46292 3.4974 6.3959 3.61317 6.30253 3.70572C6.20915 3.79827 6.09279 3.86426 5.96544 3.8969L4.767 4.20784C4.67794 4.23128 4.67169 4.35628 4.75919 4.38753L6.02325 4.82503C6.24981 4.90315 6.42481 5.08753 6.49356 5.31721L6.94512 7.12815C6.96856 7.2219 7.10294 7.22347 7.12637 7.12815L7.59356 5.31096C7.62816 5.19756 7.6893 5.09403 7.77191 5.00898C7.85451 4.92392 7.95621 4.85979 8.06856 4.8219L9.33419 4.3969Z" fill="#F4B400" stroke="#F4B400" stroke-miterlimit="10"/>
</svg>
