<svg id="a" xmlns="http://www.w3.org/2000/svg" viewBox="0 0 20 20"><path d="M3.65,13.63c0,.77,.33,1.5,.91,2.01v1.16c0,.25,.2,.45,.45,.45h.91c.25,0,.45-.2,.45-.45v-.45h7.25v.45c0,.25,.2,.45,.45,.45h.91c.25,0,.45-.2,.45-.45v-1.16c.57-.51,.9-1.24,.91-2.01v-1.36H3.65v1.36Zm13.14-3.63H5.01V4.71c0-.33,.27-.6,.6-.6,.16,0,.31,.07,.43,.18l.54,.55c-.37,.85-.22,1.67,.25,2.26h0c-.18,.18-.18,.47,0,.65l.32,.32c.18,.18,.47,.18,.64,0l2.99-2.99c.18-.17,.18-.46,0-.64l-.32-.32c-.18-.18-.47-.18-.64,0h0c-.58-.46-1.41-.61-2.26-.24l-.55-.54c-.77-.77-2.01-.77-2.77,0-.37,.37-.57,.87-.57,1.39v5.29h-.45c-.25,0-.45,.2-.45,.45v.45c0,.25,.2,.45,.45,.45h13.6c.25,0,.45-.2,.45-.45v-.45c0-.25-.2-.45-.45-.45" style="fill:#fff;"/></svg>