<svg width="193" height="199" viewBox="0 0 193 199" fill="none" xmlns="http://www.w3.org/2000/svg">
<path d="M188.015 63.6762L157.865 41.8508L157.864 13.7253C157.864 10.7998 155.388 8.32479 152.463 8.32479H140.087C137.162 8.32479 134.687 10.7999 134.687 13.7253V24.9755L102.514 2.02467C98.9133 -0.674892 93.9631 -0.674892 90.3643 2.02467L4.86276 63.6758C-0.537739 67.5007 -1.66155 75.3764 2.61208 80.5511C6.43694 85.277 13.4119 86.1762 18.362 82.5758L96.2133 26.3247L174.065 82.5758C179.015 86.1762 185.99 85.2753 189.815 80.5511C194.314 75.3764 193.413 67.5009 188.014 63.6758L188.015 63.6762Z" fill="black"/>
<path fill-rule="evenodd" clip-rule="evenodd" d="M27.7246 96.2299C27.7246 93.0243 29.2613 90.013 31.8571 88.1322L90.4929 45.6452C93.9888 43.1122 98.7155 43.1085 102.215 45.6361L161.057 88.1329C163.66 90.0129 165.202 93.0286 165.202 96.2397V179C165.202 190.046 156.248 199 145.202 199H112.101V155.851C112.101 150.328 107.624 145.851 102.101 145.851H91.1628C85.64 145.851 81.1628 150.328 81.1628 155.851V199H47.7246C36.6789 199 27.7246 190.046 27.7246 179V96.2299ZM111.426 101.7V81.4506C111.426 79.4259 110.077 77.8517 108.276 78.0777H84.6505C82.8519 78.0777 81.2761 79.6519 81.2761 81.4521V101.702C81.2761 103.5 82.8502 105.076 84.6505 105.076L108.052 105.075C109.85 105.075 111.426 103.5 111.426 101.7Z" fill="#242424"/>
</svg>
