<svg width="36" height="36" viewBox="0 0 36 36" fill="none" xmlns="http://www.w3.org/2000/svg">
<path d="M8.1875 6.875C8.10462 6.875 8.02513 6.90792 7.96653 6.96653C7.90792 7.02513 7.875 7.10462 7.875 7.1875V22.8125C7.875 22.985 8.015 23.125 8.1875 23.125H14.75V25H8.1875C7.60734 25 7.05094 24.7695 6.6407 24.3593C6.23047 23.9491 6 23.3927 6 22.8125V7.1875C6 5.98 6.98 5 8.1875 5H15.0625C16.27 5 17.25 5.98 17.25 7.1875V10.9375C17.25 11.11 17.39 11.25 17.5625 11.25H18.8125C20.02 11.25 21 12.23 21 13.4375V13.5275L19.125 15.2775V13.4375C19.125 13.3546 19.0921 13.2751 19.0335 13.2165C18.9749 13.1579 18.8954 13.125 18.8125 13.125H17.5625C16.9823 13.125 16.4259 12.8945 16.0157 12.4843C15.6055 12.0741 15.375 11.5177 15.375 10.9375V7.1875C15.375 7.10462 15.3421 7.02513 15.2835 6.96653C15.2249 6.90792 15.1454 6.875 15.0625 6.875H8.1875ZM11 9.6875C11 9.93614 10.9012 10.1746 10.7254 10.3504C10.5496 10.5262 10.3111 10.625 10.0625 10.625C9.81386 10.625 9.5754 10.5262 9.39959 10.3504C9.22377 10.1746 9.125 9.93614 9.125 9.6875C9.125 9.43886 9.22377 9.2004 9.39959 9.02459C9.5754 8.84877 9.81386 8.75 10.0625 8.75C10.3111 8.75 10.5496 8.84877 10.7254 9.02459C10.9012 9.2004 11 9.43886 11 9.6875ZM10.0625 14.375C10.3111 14.375 10.5496 14.2762 10.7254 14.1004C10.9012 13.9246 11 13.6861 11 13.4375C11 13.1889 10.9012 12.9504 10.7254 12.7746C10.5496 12.5988 10.3111 12.5 10.0625 12.5C9.81386 12.5 9.5754 12.5988 9.39959 12.7746C9.22377 12.9504 9.125 13.1889 9.125 13.4375C9.125 13.6861 9.22377 13.9246 9.39959 14.1004C9.5754 14.2762 9.81386 14.375 10.0625 14.375ZM11 17.1875C11 17.4361 10.9012 17.6746 10.7254 17.8504C10.5496 18.0262 10.3111 18.125 10.0625 18.125C9.81386 18.125 9.5754 18.0262 9.39959 17.8504C9.22377 17.6746 9.125 17.4361 9.125 17.1875C9.125 16.9389 9.22377 16.7004 9.39959 16.5246C9.5754 16.3488 9.81386 16.25 10.0625 16.25C10.3111 16.25 10.5496 16.3488 10.7254 16.5246C10.9012 16.7004 11 16.9389 11 17.1875ZM13.1875 10.625C13.4361 10.625 13.6746 10.5262 13.8504 10.3504C14.0262 10.1746 14.125 9.93614 14.125 9.6875C14.125 9.43886 14.0262 9.2004 13.8504 9.02459C13.6746 8.84877 13.4361 8.75 13.1875 8.75C12.9389 8.75 12.7004 8.84877 12.5246 9.02459C12.3488 9.2004 12.25 9.43886 12.25 9.6875C12.25 9.93614 12.3488 10.1746 12.5246 10.3504C12.7004 10.5262 12.9389 10.625 13.1875 10.625ZM14.125 13.4375C14.125 13.6861 14.0262 13.9246 13.8504 14.1004C13.6746 14.2762 13.4361 14.375 13.1875 14.375C12.9389 14.375 12.7004 14.2762 12.5246 14.1004C12.3488 13.9246 12.25 13.6861 12.25 13.4375C12.25 13.1889 12.3488 12.9504 12.5246 12.7746C12.7004 12.5988 12.9389 12.5 13.1875 12.5C13.4361 12.5 13.6746 12.5988 13.8504 12.7746C14.0262 12.9504 14.125 13.1889 14.125 13.4375ZM13.1875 18.125C13.3106 18.125 13.4325 18.1008 13.5463 18.0536C13.66 18.0065 13.7634 17.9375 13.8504 17.8504C13.9375 17.7634 14.0065 17.66 14.0536 17.5463C14.1008 17.4325 14.125 17.3106 14.125 17.1875C14.125 17.0644 14.1008 16.9425 14.0536 16.8287C14.0065 16.715 13.9375 16.6116 13.8504 16.5246C13.7634 16.4375 13.66 16.3685 13.5463 16.3214C13.4325 16.2742 13.3106 16.25 13.1875 16.25C12.9389 16.25 12.7004 16.3488 12.5246 16.5246C12.3488 16.7004 12.25 16.9389 12.25 17.1875C12.25 17.4361 12.3488 17.6746 12.5246 17.8504C12.7004 18.0262 12.9389 18.125 13.1875 18.125ZM24.9925 14.2987C24.5874 13.9207 24.054 13.7105 23.5 13.7105C22.946 13.7105 22.4126 13.9207 22.0075 14.2987L16.695 19.2562C16.4756 19.461 16.3007 19.7087 16.1811 19.984C16.0615 20.2592 15.9999 20.5561 16 20.8563V28.125C16 28.6223 16.1975 29.0992 16.5492 29.4508C16.9008 29.8025 17.3777 30 17.875 30H20.375C20.8723 30 21.3492 29.8025 21.7008 29.4508C22.0525 29.0992 22.25 28.6223 22.25 28.125V25H24.75V28.125C24.75 28.6223 24.9475 29.0992 25.2992 29.4508C25.6508 29.8025 26.1277 30 26.625 30H29.125C29.6223 30 30.0992 29.8025 30.4508 29.4508C30.8025 29.0992 31 28.6223 31 28.125V20.8563C31.0001 20.5561 30.9385 20.2592 30.8189 19.984C30.6993 19.7087 30.5244 19.461 30.305 19.2562L24.9925 14.2987ZM23.2863 15.6687C23.3442 15.6144 23.4206 15.5842 23.5 15.5842C23.5794 15.5842 23.6558 15.6144 23.7137 15.6687L29.0262 20.6275C29.0575 20.6568 29.0824 20.6923 29.0994 20.7316C29.1164 20.771 29.1251 20.8134 29.125 20.8563V28.125H26.625V25C26.625 24.5027 26.4275 24.0258 26.0758 23.6742C25.7242 23.3225 25.2473 23.125 24.75 23.125H22.25C21.7527 23.125 21.2758 23.3225 20.9242 23.6742C20.5725 24.0258 20.375 24.5027 20.375 25V28.125H17.875V20.8563C17.8751 20.8133 17.884 20.7708 17.9012 20.7315C17.9184 20.6921 17.9435 20.6567 17.975 20.6275L23.2875 15.6687H23.2863Z" fill="#242424"/>
</svg>
