<svg width="28" height="33" viewBox="0 0 28 33" fill="none" xmlns="http://www.w3.org/2000/svg">
<path d="M14.3968 31.2254L14.7304 31.8971H14.7304L14.3968 31.2254ZM13.6032 31.2254L13.2696 31.8971H13.2696L13.6032 31.2254ZM26.25 14.7012C26.25 19.294 23.7978 22.9721 20.9952 25.6755C18.1952 28.3763 15.1208 30.0284 14.0631 30.5536L14.7304 31.8971C15.8527 31.3397 19.0799 29.6071 22.0366 26.7551C24.9906 23.9057 27.75 19.8631 27.75 14.7012H26.25ZM14 2.45117C20.7655 2.45117 26.25 7.93568 26.25 14.7012H27.75C27.75 7.10726 21.5939 0.951172 14 0.951172V2.45117ZM1.75 14.7012C1.75 7.93568 7.23451 2.45117 14 2.45117V0.951172C6.40608 0.951172 0.25 7.10726 0.25 14.7012H1.75ZM13.9369 30.5536C12.8792 30.0284 9.80475 28.3763 7.00481 25.6755C4.20218 22.9721 1.75 19.294 1.75 14.7012H0.25C0.25 19.8631 3.00945 23.9057 5.96344 26.7551C8.92012 29.6071 12.1473 31.3397 13.2696 31.8971L13.9369 30.5536ZM14.0632 30.5536C14.0182 30.576 13.9818 30.576 13.9368 30.5536L13.2696 31.8971C13.7349 32.1282 14.2651 32.1282 14.7304 31.8971L14.0632 30.5536ZM18.8217 14.7012C18.8217 17.364 16.6631 19.5226 14.0003 19.5226V21.0226C17.4915 21.0226 20.3217 18.1924 20.3217 14.7012H18.8217ZM14.0003 9.87974C16.6631 9.87974 18.8217 12.0384 18.8217 14.7012H20.3217C20.3217 11.2099 17.4915 8.37974 14.0003 8.37974V9.87974ZM9.17887 14.7012C9.17887 12.0384 11.3375 9.87974 14.0003 9.87974V8.37974C10.5091 8.37974 7.67887 11.2099 7.67887 14.7012H9.17887ZM14.0003 19.5226C11.3375 19.5226 9.17887 17.364 9.17887 14.7012H7.67887C7.67887 18.1924 10.5091 21.0226 14.0003 21.0226V19.5226Z" fill="#242424" fill-opacity="0.3"/>
</svg>
