<svg xmlns="http://www.w3.org/2000/svg" width="38.4" height="38.4" viewBox="0 0 38.4 38.4"><path d="M19.2,38.4A19.2,19.2,0,0,1,5.623,5.623,19.2,19.2,0,1,1,32.776,32.776,19.075,19.075,0,0,1,19.2,38.4ZM19.072,12c-.063,0-6.317,0-7.87.424a2.53,2.53,0,0,0-1.781,1.793A26.68,26.68,0,0,0,9,19.1a26.688,26.688,0,0,0,.421,4.881A2.478,2.478,0,0,0,11.2,25.741c1.553.418,7.807.423,7.87.423s6.318,0,7.871-.423a2.478,2.478,0,0,0,1.781-1.764,26.688,26.688,0,0,0,.421-4.881,26.68,26.68,0,0,0-.421-4.88,2.53,2.53,0,0,0-1.781-1.793C25.39,12,19.135,12,19.072,12Zm-2.06,10.092V16.1l5.265,3-5.264,2.994Z" fill="#fff"/></svg>